<?xml version="1.0" encoding="utf-8"?>
<!-- Generator: Adobe Illustrator 16.0.3, SVG Export Plug-In . SVG Version: 6.00 Build 0)  -->
<!DOCTYPE svg PUBLIC "-//W3C//DTD SVG 1.1//EN" "http://www.w3.org/Graphics/SVG/1.1/DTD/svg11.dtd">
<svg version="1.1" id="Capa_1" xmlns="http://www.w3.org/2000/svg" xmlns:xlink="http://www.w3.org/1999/xlink" x="0px" y="0px"
	 width="16px" height="16px" viewBox="0 0 16 16" enable-background="new 0 0 16 16" xml:space="preserve">
<g>
	<g>
		<path fill="#1CB978" d="M7.142,12.857c0.238,0.212,0.672,0.317,1.3,0.317c0.68,0,1.26-0.238,1.741-0.718
			c0.061-0.064,0.183-0.208,0.365-0.429l1.424,0.512c-0.348,0.483-0.6,0.805-0.757,0.961c-0.765,0.77-1.689,1.155-2.773,1.155
			c-1.078,0-2-0.386-2.766-1.155c-0.767-0.771-1.149-1.698-1.149-2.785c0-1.089,0.383-2.016,1.149-2.786
			c0.766-0.77,1.688-1.154,2.766-1.154c0.928,0,1.739,0.281,2.437,0.843c0.115,0.097,0.229,0.2,0.337,0.312
			c0.047,0.046,0.179,0.191,0.394,0.435l-0.717,0.726L7.142,12.857z M9.523,8.434C9.361,8.31,9.003,8.247,8.442,8.247
			c-0.674,0-1.251,0.241-1.731,0.723c-0.479,0.481-0.719,1.063-0.719,1.745c0,0.557,0.062,0.919,0.186,1.086L9.523,8.434z"/>
	</g>
</g>
<path fill="#6ED69A" d="M6.102,13.899c-0.029-0.087-0.114-0.118-0.175-0.17c-0.291-0.25-0.543-0.533-0.759-0.849
	c-0.007-0.012-0.021-0.02-0.032-0.028c-0.38,0.379-0.76,0.756-1.14,1.135c-0.099,0.098-0.101,0.1-0.171-0.022
	c-0.354-0.612-0.587-1.267-0.705-1.964c-0.066-0.393-0.095-0.788-0.083-1.186c0.022-0.756,0.181-1.48,0.478-2.173
	c0.323-0.757,0.782-1.424,1.381-1.989C5.757,5.84,6.772,5.32,7.938,5.104C8.244,5.048,8.55,5.014,8.86,5.012
	c0.116-0.001,0.231-0.018,0.349-0.014c0.047,0.001,0.072-0.023,0.103-0.051c0.872-0.874,1.745-1.744,2.614-2.618
	c0.219-0.22,0.208-0.591-0.016-0.809c-0.217-0.214-0.575-0.212-0.799,0.01c-0.753,0.752-1.506,1.506-2.257,2.261
	C8.794,3.852,8.732,3.877,8.645,3.88C8.07,3.898,7.51,4.001,6.96,4.166c-0.905,0.273-1.722,0.71-2.453,1.307
	C3.781,6.064,3.2,6.778,2.752,7.602c-0.398,0.73-0.658,1.508-0.78,2.33c-0.09,0.606-0.097,1.218-0.034,1.828
	c0.058,0.568,0.188,1.12,0.378,1.655c0.196,0.553,0.467,1.067,0.787,1.559c0.23,0.353,0.511,0.661,0.785,0.975
	c0.056,0.063,0.088,0.056,0.146,0c0.661-0.635,1.298-1.291,1.951-1.934C6.024,13.977,6.063,13.938,6.102,13.899z"/>
<path fill="#3C5762" d="M11.847,0.003c-0.346,0-0.693,0-1.038,0c-0.232,0-0.398,0.163-0.398,0.388c0,0.223,0.155,0.38,0.389,0.381
	c0.54,0.003,1.079,0.003,1.618-0.001c0.099-0.001,0.122,0.027,0.122,0.123c-0.006,0.537-0.004,1.073-0.001,1.609
	c0,0.197,0.1,0.334,0.272,0.392c0.146,0.048,0.313-0.006,0.42-0.137c0.071-0.087,0.088-0.191,0.09-0.297c0-0.668,0-1.336,0-2.004
	c0-0.29-0.199-0.469-0.468-0.456C12.52,0.016,12.183,0.003,11.847,0.003z"/>
</svg>
