<?xml version="1.0" encoding="utf-8"?>
<!-- Generator: Adobe Illustrator 16.0.3, SVG Export Plug-In . SVG Version: 6.00 Build 0)  -->
<!DOCTYPE svg PUBLIC "-//W3C//DTD SVG 1.1//EN" "http://www.w3.org/Graphics/SVG/1.1/DTD/svg11.dtd">
<svg version="1.1" id="Capa_1" xmlns="http://www.w3.org/2000/svg" xmlns:xlink="http://www.w3.org/1999/xlink" x="0px" y="0px"
	 width="60px" height="60px" viewBox="0 0 60 60" enable-background="new 0 0 60 60" xml:space="preserve">
<g>
	<g>
		<path fill="#F2F2F2" d="M48.313,4.265c0-1.945-1.577-3.523-3.522-3.523H14.518c-1.945,0-3.523,1.578-3.523,3.523v50.758h37.317
			V4.265z"/>
		<path fill="#3C5762" d="M49.055,55.766H10.253v-51.5C10.253,1.913,12.166,0,14.518,0H44.79c2.352,0,4.265,1.913,4.265,4.265
			V55.766z M11.737,54.281H47.57V4.265c0-1.533-1.247-2.78-2.78-2.78H14.518c-1.533,0-2.781,1.247-2.781,2.78V54.281z"/>
	</g>
	<path fill="#3C5762" d="M24.566,5.778H23.19c-0.41,0-0.742-0.333-0.742-0.742c0-0.411,0.332-0.743,0.742-0.743h1.376
		c0.41,0,0.742,0.333,0.742,0.743C25.308,5.446,24.976,5.778,24.566,5.778z"/>
	<path fill="#3C5762" d="M36.366,5.778h-9.412c-0.41,0-0.742-0.333-0.742-0.742c0-0.411,0.332-0.743,0.742-0.743h9.412
		c0.41,0,0.742,0.333,0.742,0.743C37.108,5.446,36.775,5.778,36.366,5.778z"/>
	<g>
		<path fill="#FFFFFF" d="M43.762,39.863c0,2.083-1.689,3.773-3.774,3.773H19.32c-2.084,0-3.774-1.689-3.774-3.773V12.909
			c0-2.084,1.69-3.773,3.774-3.773h20.668c2.084,0,3.774,1.689,3.774,3.773V39.863z"/>
		<path fill="#3C5762" d="M39.988,44.378H19.32c-2.49,0-4.516-2.025-4.516-4.515V12.909c0-2.49,2.026-4.516,4.516-4.516h20.668
			c2.49,0,4.516,2.026,4.516,4.516v26.954C44.504,42.353,42.478,44.378,39.988,44.378z M19.32,9.878
			c-1.671,0-3.031,1.36-3.031,3.031v26.954c0,1.671,1.36,3.031,3.031,3.031h20.668c1.671,0,3.031-1.359,3.031-3.031V12.909
			c0-1.671-1.36-3.031-3.031-3.031H19.32z"/>
	</g>
	<g>
		<path fill="#CCCCCC" d="M10.995,48.555v7.572c0,1.946,1.578,3.523,3.523,3.523H44.79c1.945,0,3.522-1.577,3.522-3.523v-7.572
			H10.995z"/>
		<path fill="#3C5762" d="M44.79,60.393H14.518c-2.352,0-4.265-1.914-4.265-4.266v-8.314h38.802v8.314
			C49.055,58.479,47.142,60.393,44.79,60.393z M11.737,49.297v6.83c0,1.533,1.248,2.781,2.781,2.781H44.79
			c1.533,0,2.78-1.248,2.78-2.781v-6.83H11.737z"/>
	</g>
	<g>
		<circle fill="#B9F4BC" cx="29.654" cy="54.267" r="2.835"/>
		<path fill="#3C5762" d="M29.654,57.846c-1.973,0-3.578-1.605-3.578-3.579c0-1.973,1.604-3.578,3.578-3.578
			c1.973,0,3.578,1.605,3.578,3.578C33.232,56.24,31.626,57.846,29.654,57.846z M29.654,52.174c-1.154,0-2.093,0.939-2.093,2.093
			c0,1.155,0.939,2.093,2.093,2.093c1.154,0,2.093-0.938,2.093-2.093C31.747,53.113,30.808,52.174,29.654,52.174z"/>
	</g>
	<g>
		<polygon fill="#3ECF8E" points="42.037,6.157 43.503,9.127 46.781,9.604 44.409,11.915 44.969,15.18 42.037,13.638 39.105,15.18 
			39.666,11.915 37.293,9.604 40.571,9.127 		"/>
		<path fill="#3ECF8E" d="M42.037,12.896c0.119,0,0.238,0.029,0.346,0.086l1.601,0.841l-0.306-1.782
			c-0.042-0.241,0.039-0.486,0.214-0.657l1.295-1.262l-1.789-0.26c-0.242-0.035-0.451-0.187-0.559-0.406l-0.801-1.621l-0.8,1.621
			c-0.108,0.219-0.317,0.371-0.559,0.406l-1.79,0.26l1.295,1.262c0.175,0.17,0.255,0.416,0.213,0.657l-0.306,1.782l1.6-0.841
			C41.8,12.924,41.918,12.896,42.037,12.896z"/>
	</g>
	<ellipse fill="#F2F2F2" cx="29.72" cy="38.335" rx="11.892" ry="2.507"/>
	<g>
		<path fill="#3C5762" d="M35.176,36.664H24.938c-0.41,0-0.742-0.333-0.742-0.742v-2.384c0-0.069,0.01-0.137,0.028-0.203
			l0.746-2.629l-3.008-9.75l-3.261-0.941c-0.394-0.114-0.621-0.525-0.507-0.918c0.114-0.394,0.525-0.621,0.919-0.508l3.647,1.052
			c0.24,0.069,0.43,0.255,0.503,0.494l3.191,10.344c0.042,0.137,0.043,0.284,0.005,0.421L25.68,33.64v1.539h9.497
			c0.41,0,0.742,0.332,0.742,0.742C35.918,36.331,35.586,36.664,35.176,36.664z"/>
		<g>
			<circle fill="#FFFFFF" cx="35.001" cy="35.711" r="2.91"/>
			<path fill="#3C5762" d="M35.001,39.364c-2.014,0-3.653-1.639-3.653-3.653s1.639-3.653,3.653-3.653
				c2.015,0,3.653,1.639,3.653,3.653S37.016,39.364,35.001,39.364z M35.001,33.543c-1.195,0-2.168,0.972-2.168,2.167
				c0,1.196,0.973,2.168,2.168,2.168s2.168-0.972,2.168-2.168C37.169,34.516,36.196,33.543,35.001,33.543z"/>
		</g>
		<g>
			<circle fill="#FFFFFF" cx="24.745" cy="35.711" r="2.91"/>
			<path fill="#3C5762" d="M24.745,39.364c-2.014,0-3.652-1.639-3.652-3.653s1.638-3.653,3.652-3.653s3.653,1.639,3.653,3.653
				S26.759,39.364,24.745,39.364z M24.745,33.543c-1.195,0-2.168,0.972-2.168,2.167c0,1.196,0.973,2.168,2.168,2.168
				s2.168-0.972,2.168-2.168C26.914,34.516,25.94,33.543,24.745,33.543z"/>
		</g>
		<g>
			<path fill="#B9F4BC" d="M23.309,22.802c0,0,11.51,0,15.409,0c0.668,0,1.683,0.531,1.683,2.074c0,2.396-2.139,6.066-5.926,6.066
				s-8.801,0-8.801,0L23.309,22.802z"/>
			<path fill="#3C5762" d="M34.475,31.685h-8.801c-0.33,0-0.621-0.218-0.712-0.536l-2.366-8.141
				c-0.065-0.224-0.021-0.466,0.119-0.653c0.141-0.187,0.36-0.297,0.594-0.297h15.409c0.975,0,2.425,0.75,2.425,2.817
				C41.143,27.719,38.607,31.685,34.475,31.685z M26.231,30.2h8.244c3.451,0,5.183-3.413,5.183-5.324
				c0-1.317-0.902-1.332-0.94-1.332h-14.42L26.231,30.2z"/>
		</g>
	</g>
</g>
<g>
	<g>
		<g>
			<path fill="#B9F4BC" d="M578.636,166.126h-66.54c-7.146,0-12.938,5.792-12.938,12.938v34.589c0,7.146,5.792,12.938,12.938,12.938
				h13.446l1.252,12.322l8.423-12.322h43.418c7.146,0,12.938-5.792,12.938-12.938v-34.589
				C591.573,171.919,585.781,166.126,578.636,166.126z"/>
			<path fill="#3C5762" d="M526.795,240.485c-0.129,0-0.259-0.016-0.387-0.048c-0.64-0.163-1.11-0.709-1.176-1.365l-1.109-10.909
				h-12.026c-8.001,0-14.51-6.509-14.51-14.51v-34.589c0-8.001,6.509-14.51,14.51-14.51h66.54c8.001,0,14.51,6.509,14.51,14.51
				v34.589c0,8.001-6.509,14.51-14.51,14.51h-42.589l-7.954,11.637C527.795,240.235,527.306,240.485,526.795,240.485z
				 M512.096,167.699c-6.267,0-11.366,5.099-11.366,11.366v34.589c0,6.267,5.099,11.366,11.366,11.366h13.446
				c0.806,0,1.482,0.611,1.563,1.414l0.818,8.042l5.996-8.771c0.292-0.429,0.778-0.685,1.298-0.685h43.418
				c6.267,0,11.366-5.099,11.366-11.366v-34.589c0-6.267-5.099-11.366-11.366-11.366H512.096z"/>
		</g>
		<path fill="#3C5762" d="M551.636,210.743h-16.898c-0.869,0-1.572-0.704-1.572-1.572c0-0.868,0.704-1.572,1.572-1.572h16.898
			c0.868,0,1.572,0.704,1.572,1.572C553.208,210.039,552.504,210.743,551.636,210.743z"/>
		<path fill="#3C5762" d="M570.196,197.441h-3.65c-0.868,0-1.572-0.704-1.572-1.572c0-0.868,0.704-1.572,1.572-1.572h3.65
			c0.868,0,1.572,0.704,1.572,1.572C571.768,196.737,571.064,197.441,570.196,197.441z"/>
		<path fill="#3C5762" d="M560.211,197.441h-24.969c-0.868,0-1.572-0.704-1.572-1.572c0-0.868,0.704-1.572,1.572-1.572h24.969
			c0.868,0,1.572,0.704,1.572,1.572C561.783,196.737,561.08,197.441,560.211,197.441z"/>
	</g>
	<g>
		<g>
			<path fill="#F2F2F2" d="M466.458,120.319h66.54c7.145,0,12.938,5.795,12.938,12.94v34.589c0,7.146-5.792,12.938-12.938,12.938
				h-13.446l-1.253,12.322l-8.423-12.322h-43.417c-7.146,0-12.938-5.792-12.938-12.938v-34.589
				C453.521,126.114,459.313,120.319,466.458,120.319z"/>
			<path fill="#3C5762" d="M518.299,194.68c-0.511,0-1-0.25-1.298-0.685l-7.955-11.637h-42.588c-8.001,0-14.51-6.509-14.51-14.51
				v-34.589c0-8.002,6.509-14.512,14.51-14.512h66.54c8.001,0,14.51,6.51,14.51,14.512v34.589c0,8.001-6.509,14.51-14.51,14.51
				h-12.026l-1.109,10.908c-0.066,0.657-0.536,1.203-1.176,1.365C518.558,194.665,518.428,194.68,518.299,194.68z M466.458,121.891
				c-6.267,0-11.366,5.1-11.366,11.368v34.589c0,6.267,5.099,11.366,11.366,11.366h43.417c0.519,0,1.005,0.256,1.298,0.685
				l5.997,8.773l0.818-8.044c0.081-0.804,0.757-1.414,1.563-1.414h13.446c6.267,0,11.366-5.099,11.366-11.366v-34.589
				c0-6.268-5.099-11.368-11.366-11.368H466.458z"/>
		</g>
		<path fill="#3C5762" d="M533.922,153.498h-41.719c-0.868,0-1.572-0.704-1.572-1.572c0-0.868,0.704-1.572,1.572-1.572h41.719
			c0.869,0,1.572,0.704,1.572,1.572C535.494,152.794,534.791,153.498,533.922,153.498z"/>
		<path fill="#3C5762" d="M482.213,153.498h-16.898c-0.868,0-1.572-0.704-1.572-1.572c0-0.868,0.704-1.572,1.572-1.572h16.898
			c0.868,0,1.572,0.704,1.572,1.572C483.785,152.794,483.081,153.498,482.213,153.498z"/>
		<path fill="#3C5762" d="M500.773,140.192h-3.65c-0.869,0-1.572-0.704-1.572-1.572s0.704-1.572,1.572-1.572h3.65
			c0.868,0,1.572,0.704,1.572,1.572S501.642,140.192,500.773,140.192z"/>
		<path fill="#3C5762" d="M490.788,140.192h-24.97c-0.868,0-1.572-0.704-1.572-1.572s0.704-1.572,1.572-1.572h24.97
			c0.868,0,1.572,0.704,1.572,1.572S491.656,140.192,490.788,140.192z"/>
	</g>
</g>
<g>
	<path fill-rule="evenodd" clip-rule="evenodd" fill="#3C5762" d="M284.038,232.53c0-11.314,0-22.628,0-33.943
		c1.328-3.177,3.862-4.037,7.069-3.832c2.016,0.13,4.048,0.017,6.072,0.013c1.465,0.29,2.876,0.738,3.722,2.068
		c0.464,0.73,0.769,0.522,1.273,0.104c1.886-1.563,3.818-3.07,5.694-4.644c2.918-2.446,5.929-4.703,9.416-6.348
		c4.964-2.341,9.817-4.917,14.723-7.385c0.435-0.219,0.885-0.421,1.347-0.573c2.923-0.96,5.529-0.376,7.658,1.829
		c2.135,2.211,2.609,4.841,1.52,7.72c-0.717,1.896-2.116,3.157-3.897,4.047c-1.382,0.691-2.753,1.405-4.129,2.109
		c0.373,0.204,0.667,0.229,0.962,0.229c6.899,0.002,13.796,0,20.693,0.004c1.171,0.001,2.33,0.087,3.43,0.552
		c3.327,1.404,4.958,5.154,3.63,8.52c-0.335,0.849-0.157,1.02,0.691,0.985c1.128-0.048,2.266-0.05,3.39,0.039
		c2.632,0.21,4.545,1.58,5.595,3.965c1.046,2.38,0.79,4.716-0.834,6.807c-1.471,1.893-3.481,2.663-5.98,2.607
		c0.288,0.673,0.533,1.248,0.779,1.822c0.01,0.375,0.018,0.751,0.029,1.126c0.091,3.341-1.958,6.084-5.211,6.855
		c-0.882,0.208-1.821,0.183-2.87,0.276c0.766,1.519,1.035,3.016,0.69,4.574c-0.744,3.362-3.416,5.369-7.217,5.372
		c-12.662,0.012-25.323,0.002-37.984,0.012c-0.77,0-1.488-0.16-2.198-0.43c-3.195-1.211-6.398-2.4-9.581-3.644
		c-0.607-0.237-0.866-0.181-1.213,0.414c-0.929,1.593-2.336,2.552-4.227,2.581c-2.675,0.039-5.351,0.037-8.026,0.008
		c-1.734-0.018-3.119-0.789-4.113-2.204C284.583,233.66,284.335,233.078,284.038,232.53z M333.57,234.051c0-0.004,0-0.006,0-0.01
		c6.185,0,12.37,0.002,18.554-0.003c0.414-0.001,0.832-0.013,1.239-0.075c1.716-0.264,2.855-1.561,2.863-3.232
		c0.008-1.676-1.118-2.992-2.835-3.275c-0.442-0.073-0.9-0.074-1.352-0.077c-2.827-0.013-5.657-0.001-8.484-0.032
		c-0.957-0.01-1.555-0.531-1.661-1.504c-0.102-0.935,0.466-1.618,1.481-1.801c0.331-0.06,0.675-0.052,1.013-0.053
		c3.017-0.001,6.034,0.003,9.051,0.003c2.262,0,4.526,0.039,6.787-0.021c2.106-0.056,3.496-1.732,3.236-3.774
		c-0.211-1.662-1.625-2.816-3.538-2.82c-5.317-0.014-10.635,0.001-15.952-0.01c-1.341-0.003-2.104-0.646-2.101-1.692
		c0.003-1.044,0.774-1.67,2.11-1.686c1.131-0.014,2.263-0.003,3.395-0.003c6.373,0,12.746,0.007,19.12-0.005
		c2.208-0.004,3.644-1.431,3.562-3.481c-0.074-1.85-1.494-3.116-3.581-3.12c-7.278-0.012-14.557-0.004-21.834-0.007
		c-0.525,0-1.055,0.038-1.569-0.131c-0.832-0.271-1.233-0.855-1.18-1.704c0.055-0.857,0.55-1.386,1.406-1.513
		c0.37-0.055,0.752-0.034,1.129-0.034c4.11-0.002,8.221,0.008,12.332-0.006c1.43-0.005,2.576-0.579,3.214-1.906
		c0.548-1.14,0.445-2.275-0.28-3.319c-0.818-1.18-2.029-1.442-3.377-1.441c-9.428,0.015-18.856,0.014-28.284,0.016
		c-1.905,0-2.57-0.309-2.8-1.285c-0.241-1.025,0.189-1.582,1.868-2.432c3.39-1.718,6.784-3.427,10.166-5.161
		c1.779-0.912,2.661-2.521,2.372-4.208c-0.461-2.685-3.173-4.098-5.704-2.841c-6.3,3.13-12.563,6.335-18.838,9.516
		c-0.233,0.118-0.451,0.274-0.654,0.439c-3.956,3.202-7.903,6.414-11.87,9.602c-0.46,0.37-0.625,0.759-0.623,1.341
		c0.014,8.787,0.014,17.574-0.014,26.36c-0.002,0.689,0.236,0.972,0.857,1.2c3.352,1.234,6.689,2.507,10.024,3.787
		c0.715,0.274,1.428,0.41,2.198,0.408C321.201,234.043,327.385,234.051,333.57,234.051z M298.52,215.575
		c0-5.051,0.004-10.103-0.001-15.155c-0.002-1.631-0.512-2.156-2.164-2.172c-2.262-0.022-4.524-0.026-6.786,0.003
		c-1.529,0.019-2.098,0.617-2.099,2.158c-0.006,10.141-0.007,20.282,0.001,30.423c0.001,1.521,0.605,2.104,2.141,2.113
		c2.224,0.01,4.449,0.008,6.673,0c1.708-0.004,2.231-0.521,2.233-2.215C298.523,225.679,298.52,220.627,298.52,215.575z"/>
	<path fill-rule="evenodd" clip-rule="evenodd" fill="#FEFEFE" d="M297.179,194.768c-2.024,0.004-4.056,0.117-6.072-0.013
		c-3.207-0.205-5.741,0.655-7.069,3.832c0-24.048,0.006-48.096-0.025-72.144c-0.001-0.856,0.225-0.966,1.001-0.966
		c37.957,0.021,75.914,0.022,113.871-0.003c0.859,0,1.058,0.205,1.035,1.045c-0.063,2.373-0.021,4.748-0.021,7.123
		c-1.009-2.737-2.857-4.24-5.886-4.238c-30.793,0.017-61.586,0.012-92.379,0.014c-0.792,0-1.581,0.038-2.345,0.271
		c-2.432,0.742-3.758,2.708-3.76,5.633c-0.007,10.101-0.001,20.202-0.003,30.303c-0.001,7.425-0.007,14.85-0.007,22.274
		c0,1.613,0.274,1.994,1.659,2.368C297.177,191.766,297.178,193.267,297.179,194.768z"/>
	<path fill-rule="evenodd" clip-rule="evenodd" fill="#3C5762" d="M297.177,190.266c-1.385-0.375-1.66-0.755-1.66-2.368
		c0-7.424,0.006-14.849,0.007-22.274c0.001-10.101-0.004-20.202,0.003-30.303c0.002-2.925,1.328-4.891,3.76-5.633
		c0.764-0.233,1.553-0.271,2.345-0.271c30.792-0.001,61.586,0.003,92.379-0.014c3.029-0.002,4.877,1.501,5.886,4.238
		c0,27.758,0,55.516,0,83.274c-0.062,0.036-0.161,0.059-0.178,0.109c-1.01,2.912-3.172,3.955-6.112,3.936
		c-6.654-0.044-13.308-0.012-19.962-0.016c-1.598-0.001-1.945-0.248-2.495-1.716c0.517-1.486,0.792-1.696,2.376-1.698
		c6.75-0.006,13.499,0,20.247-0.003c2.083-0.001,2.712-0.627,2.713-2.689c0.001-26.43,0.001-52.86,0-79.29
		c0-2.09-0.601-2.699-2.685-2.702c-10.595-0.014-21.188-0.012-31.784-0.052c-0.878-0.003-1.142,0.213-1.137,1.12
		c0.038,7.164,0.026,14.327,0.019,21.491c-0.004,3.911-2.105,6.015-6,6.02c-4.751,0.006-9.501,0.006-14.252,0
		c-4.08-0.005-6.139-2.056-6.14-6.104c-0.002-7.164-0.003-14.327,0.004-21.491c0-0.598,0.057-1.037-0.845-1.034
		c-10.745,0.034-21.491,0.014-32.236,0.021c-1.868,0.001-2.499,0.656-2.5,2.534c-0.003,9.312,0.002,18.625,0.002,27.938
		c0.001,8.182,0.004,16.363-0.002,24.544C298.933,189.465,298.579,189.926,297.177,190.266z M357.45,144.806
		c0-3.62-0.023-7.24,0.018-10.859c0.009-0.809-0.153-1.106-1.043-1.1c-5.806,0.042-11.614,0.037-17.42,0.004
		c-0.814-0.004-1.081,0.165-1.077,1.045c0.042,7.164,0.021,14.328,0.024,21.492c0.001,1.986,0.58,2.58,2.545,2.583
		c4.789,0.007,9.577,0.005,14.365,0c2.03-0.003,2.584-0.572,2.587-2.646C357.454,151.82,357.45,148.313,357.45,144.806z"/>
	<path fill-rule="evenodd" clip-rule="evenodd" fill="#F2F2F2" d="M371.151,219.23c-1.43-0.001-2.861-0.003-4.292-0.004
		c-0.246-0.574-0.491-1.148-0.779-1.822c2.499,0.056,4.509-0.715,5.98-2.607c1.624-2.091,1.88-4.427,0.834-6.807
		c-1.05-2.385-2.962-3.755-5.595-3.965c-1.125-0.089-2.262-0.087-3.39-0.039c-0.848,0.035-1.026-0.136-0.691-0.985
		c1.327-3.366-0.303-7.116-3.63-8.52c-1.1-0.464-2.259-0.551-3.43-0.552c-6.897-0.004-13.794-0.002-20.693-0.004
		c-0.295,0-0.589-0.025-0.962-0.229c1.376-0.704,2.747-1.418,4.129-2.109c1.781-0.89,3.18-2.151,3.897-4.047
		c1.089-2.879,0.615-5.509-1.52-7.72c-2.129-2.206-4.734-2.789-7.658-1.829c-0.462,0.152-0.913,0.354-1.347,0.573
		c-4.905,2.468-9.758,5.044-14.723,7.385c-3.486,1.645-6.498,3.901-9.416,6.348c-1.875,1.573-3.808,3.08-5.694,4.644
		c-0.504,0.418-0.809,0.626-1.273-0.104c-0.846-1.331-2.257-1.779-3.722-2.068c0-1.501-0.001-3.001-0.002-4.501
		c1.402-0.34,1.756-0.801,1.757-2.43c0.007-8.181,0.003-16.363,0.002-24.544c0-9.313-0.005-18.625-0.002-27.938
		c0.001-1.878,0.632-2.533,2.5-2.534c10.745-0.008,21.491,0.012,32.236-0.021c0.901-0.003,0.845,0.436,0.845,1.034
		c-0.007,7.164-0.006,14.327-0.004,21.491c0.001,4.048,2.06,6.099,6.14,6.104c4.75,0.005,9.5,0.005,14.252,0
		c3.895-0.005,5.996-2.109,6-6.02c0.007-7.164,0.019-14.327-0.019-21.491c-0.005-0.906,0.259-1.123,1.137-1.12
		c10.595,0.04,21.189,0.038,31.784,0.052c2.084,0.002,2.685,0.611,2.685,2.702c0.001,26.43,0.001,52.86,0,79.29
		c-0.001,2.062-0.63,2.688-2.713,2.689c-6.749,0.003-13.498-0.002-20.247,0.003C371.943,217.534,371.668,217.745,371.151,219.23z"/>
	<path fill-rule="evenodd" clip-rule="evenodd" fill="#FCD1B9" d="M333.57,234.051c-6.185,0-12.369-0.008-18.554,0.01
		c-0.77,0.002-1.483-0.134-2.198-0.408c-3.335-1.28-6.672-2.553-10.024-3.787c-0.621-0.229-0.859-0.511-0.857-1.2
		c0.028-8.786,0.028-17.573,0.014-26.36c-0.001-0.582,0.163-0.971,0.623-1.341c3.967-3.188,7.914-6.4,11.87-9.602
		c0.203-0.165,0.421-0.321,0.654-0.439c6.275-3.181,12.538-6.386,18.838-9.516c2.53-1.257,5.243,0.156,5.704,2.841
		c0.289,1.687-0.593,3.295-2.372,4.208c-3.381,1.734-6.776,3.443-10.166,5.161c-1.678,0.85-2.108,1.407-1.868,2.432
		c0.23,0.976,0.896,1.285,2.8,1.285c9.428-0.002,18.856-0.001,28.284-0.016c1.348-0.001,2.559,0.261,3.377,1.441
		c0.725,1.044,0.829,2.179,0.28,3.319c-0.638,1.327-1.784,1.901-3.214,1.906c-4.111,0.014-8.221,0.003-12.332,0.006
		c-0.376,0-0.759-0.021-1.129,0.034c-0.856,0.127-1.352,0.656-1.406,1.513c-0.054,0.848,0.348,1.433,1.18,1.704
		c0.515,0.169,1.044,0.131,1.569,0.131c7.278,0.002,14.557-0.005,21.834,0.007c2.087,0.003,3.507,1.27,3.581,3.12
		c0.082,2.05-1.354,3.478-3.562,3.481c-6.374,0.012-12.747,0.005-19.12,0.005c-1.131,0-2.263-0.011-3.395,0.003
		c-1.336,0.016-2.106,0.641-2.11,1.686c-0.003,1.046,0.759,1.688,2.101,1.692c5.316,0.012,10.634-0.004,15.952,0.01
		c1.913,0.004,3.326,1.159,3.538,2.82c0.259,2.042-1.13,3.718-3.236,3.774c-2.261,0.06-4.525,0.021-6.787,0.021
		c-3.018,0-6.035-0.004-9.051-0.003c-0.338,0-0.683-0.007-1.013,0.053c-1.016,0.183-1.583,0.866-1.481,1.801
		c0.106,0.973,0.704,1.494,1.661,1.504c2.828,0.03,5.657,0.019,8.484,0.032c0.451,0.002,0.909,0.003,1.352,0.077
		c1.717,0.283,2.843,1.6,2.835,3.275c-0.008,1.672-1.147,2.969-2.863,3.232c-0.408,0.063-0.826,0.074-1.239,0.075
		c-6.184,0.005-12.369,0.003-18.554,0.003C333.57,234.045,333.57,234.047,333.57,234.051z"/>
	<path fill-rule="evenodd" clip-rule="evenodd" fill="#3ECF8E" d="M298.52,215.575c0,5.052,0.003,10.104-0.001,15.155
		c-0.001,1.693-0.525,2.211-2.233,2.215c-2.224,0.008-4.449,0.01-6.673,0c-1.535-0.009-2.14-0.593-2.141-2.113
		c-0.008-10.141-0.007-20.282-0.001-30.423c0.001-1.541,0.569-2.139,2.099-2.158c2.261-0.029,4.524-0.025,6.786-0.003
		c1.651,0.016,2.162,0.541,2.164,2.172C298.524,205.472,298.52,210.524,298.52,215.575z"/>
	<path fill-rule="evenodd" clip-rule="evenodd" fill="#3ECF8E" d="M357.45,144.806c0,3.507,0.004,7.014-0.001,10.52
		c-0.002,2.074-0.557,2.643-2.587,2.646c-4.788,0.005-9.577,0.006-14.365,0c-1.965-0.003-2.544-0.597-2.545-2.583
		c-0.002-7.164,0.018-14.329-0.024-21.492c-0.004-0.881,0.262-1.05,1.077-1.045c5.807,0.033,11.614,0.039,17.42-0.004
		c0.89-0.006,1.053,0.291,1.043,1.1C357.427,137.566,357.45,141.186,357.45,144.806z"/>
</g>
<g>
	<g>
		<path fill-rule="evenodd" clip-rule="evenodd" fill="#3C5762" d="M127.398,208.539c0.133-1.723,0.154-3.446-0.016-5.168
			c0.028-4.447,0.063-8.895,0.079-13.342c0.005-1.58-0.04-3.162-0.063-4.743c0.133-1.723,0.154-3.445-0.016-5.168
			c0.028-4.447,0.063-8.893,0.079-13.341c0.005-1.581-0.04-3.162-0.063-4.743c0.133-1.723,0.154-3.446-0.016-5.169
			c0.032-1.027,0.045-2.056,0.1-3.082c0.167-3.092,2.211-5.063,5.307-5.135c1.028-0.023,2.057-0.045,3.085-0.067
			c1.638,0.005,3.275,0.011,4.913,0.015c2.046,0.018,4.093,0.007,6.138,0.065c0.703,0.02,0.859-0.241,0.843-0.887
			c-0.047-1.961-0.038-3.923-0.051-5.885c-0.004-1.725-0.008-3.45-0.012-5.175c0.017-3.769,0.049-7.536,0.041-11.304
			c-0.002-1.014,0.254-1.836,1.35-2c1.024-0.153,1.572,0.482,1.801,1.429c-0.011,0.473-0.032,0.946-0.032,1.418
			c0.002,11.41-0.003,22.821,0.02,34.231c0.005,2.32-0.399,4.526-1.411,6.622c-3.374,6.995-5.087,14.31-4.288,22.12
			c0.421,4.113,1.386,8.049,3.637,11.577c1.252,1.963,3.066,2.795,5.387,2.597c0.751-0.064,0.905-0.246,0.444-0.91
			c-3.244-4.667-4.366-9.936-4.342-15.52c0.006-1.323,0.504-1.955,1.515-1.963s1.572,0.63,1.587,1.927
			c0.018,1.509,0.066,3.011,0.297,4.505c0.775,5.005,2.573,9.445,6.84,12.556c0.906,0.66,1.766,0.901,2.67,0.081
			c0.777-0.706,0.779-1.697-0.055-2.771c-3.333-4.287-4.595-9.255-4.869-14.56c-0.049-0.944,0.145-1.761,1.215-1.968
			c1.044-0.203,1.561,0.415,1.904,1.323c2.123,5.619,9.067,8.26,14.485,5.536c0.848-0.427,1.269-1.089,0.984-1.992
			c-0.278-0.884-0.969-1.282-1.921-1.103c-0.381,0.072-0.757,0.163-1.137,0.236c-3.536,0.683-6.861-0.924-8.567-4.101
			c-1.023-1.905-1.184-3.946-0.948-6.025c0.644-5.665,6.948-8.764,11.466-5.537c1.233,0.881,2.383,1.15,3.78,1.086
			c1.501-0.068,1.538-0.055,0.865-1.373c-2.395-4.696-6.296-7.393-11.386-8.46c-1.813-0.381-2.116-0.697-2.117-2.586
			c-0.002-4.951,0.004-9.903-0.002-14.854c-0.009-7.363-0.025-14.725-0.04-22.085c0.314-0.939,0.828-1.654,1.951-1.411
			c1.134,0.244,1.215,1.145,1.215,2.107c0,3.732,0.029,7.465,0.047,11.197c0.005,1.717,0.011,3.434,0.016,5.15
			c-0.023,2.015-0.033,4.029-0.077,6.043c-0.013,0.583,0.249,0.725,0.772,0.721c3.859-0.033,7.718-0.05,11.577-0.072
			c1.638,0.005,3.275,0.011,4.912,0.015c1.025,0.018,2.05,0.045,3.076,0.05c1.025,0.004,1.729,0.406,1.925,1.479
			c-0.113,1.334-0.947,1.65-2.143,1.646c-6.321-0.025-12.643,0.005-18.963-0.029c-0.881-0.005-1.24,0.21-1.174,1.143
			c0.075,1.069,0.096,2.156-0.005,3.222c-0.103,1.086,0.356,1.264,1.32,1.259c8.213-0.033,16.426-0.004,24.638-0.038
			c1.213-0.006,2.009,0.333,2.195,1.615c-0.282,1.12-1.018,1.566-2.148,1.531c-1.011-0.031-2.026,0.02-3.039,0.035
			c-6.113,0.004-12.226,0.008-18.339,0.011c-1.289-0.018-2.578-0.044-3.867-0.048c-0.271-0.001-0.647-0.11-0.708,0.336
			c-0.055,0.403,0.133,0.613,0.543,0.725c0.909,0.248,1.803,0.55,2.704,0.831c3.992,1.798,7.265,4.428,9.521,8.233
			c0.465,1.093,0.935,2.185,1.395,3.281c0.155,0.37,0.441,0.34,0.747,0.279c6.113-0.004,12.226-0.009,18.339-0.014
			c1.637,0.004,3.276,0.009,4.915,0.014c2.142,0.015,4.284,0.028,6.426,0.044c3.007,0.022,4.904,1.889,4.954,4.866
			c0.007,0.385,0.025,0.77,0.038,1.155c0.004,1.691,0.009,3.383,0.013,5.075c-0.018,5.03-0.053,10.061-0.042,15.091
			c0.002,1.293-0.04,2.559-0.555,3.765c-0.522,0.666-1.113,1.261-1.791,1.767c-0.989,0.425-2.039,0.546-3.099,0.616
			c-5.252-0.005-10.504-0.01-15.757-0.016c-1.641-0.002-3.281-0.006-4.921-0.01c-6.111,0.002-12.222,0.003-18.333,0.006
			c-1.269-0.217-2.362-0.787-3.31-1.649c-0.832-1.166-1.152-2.46-1.096-3.89c0.054-1.375-0.04-2.756,0.032-4.131
			c0.041-0.789-0.229-1.05-0.986-1.094c-1.829-0.104-3.52-0.736-5.171-1.485c-0.667-0.457-1.335-0.912-2.002-1.368
			c0.126,0.833,0.128,1.583,0.593,2.18c0.539,1.756,1.602,3.205,2.666,4.668c2.275,3.127,0.583,7.284-3.204,7.922
			c-1.704,0.288-3.097-0.435-4.383-1.454c-0.351-0.279-0.634-0.698-1.226-0.395c-1.634,0.835-3.4,0.799-5.168,0.69
			c-1.167-0.328-2.268-0.809-3.324-1.397c-0.388-0.312-0.775-0.624-1.163-0.934c-0.739-0.988-1.466-1.98-2.064-3.069
			c-1.35-2.456-2.133-5.105-2.783-7.807c-0.198-1.474-0.397-2.947-0.596-4.421c-0.22-2.959-0.202-5.913,0.235-8.854
			c0.703-4.733,2.094-9.262,4.057-13.62c1.23-1.982,1.632-4.149,1.438-6.45c-0.003-0.331-0.007-0.663-0.011-0.994
			c0.009-2.022-0.018-4.047,0.044-6.067c0.024-0.822-0.186-1.12-1.061-1.114c-4.347,0.033-8.694-0.001-13.042-0.006
			c-2.481-0.002-2.971,0.479-2.973,2.904c-0.008,14.507-0.017,29.013-0.022,43.52c-0.003,5.209-0.013,10.418,0.008,15.626
			c0.004,1.148-0.253,2.052-1.528,2.324c-1.186-0.15-1.65-0.868-1.65-2.014C127.462,212.271,127.421,210.405,127.398,208.539z
			 M170.995,182.743c-0.446-1.016-0.104-2.101-0.288-3.141c0.02-1.71,0.516-3.25,1.875-4.559c-2.439-0.12-4.039,0.79-4.819,2.592
			c-0.938,2.164-0.418,5.141,1.167,6.684c0.073,0.086,0.146,0.173,0.22,0.26c0.594,0.769,1.47,0.988,2.347,1.188
			c0.537,0.121,0.796-0.008,0.91-0.674C172.624,183.826,171.938,183.239,170.995,182.743z M195.164,203.331c0,0.005,0,0.009,0,0.015
			c6.412,0,12.823,0.003,19.234-0.003c1.6-0.002,2.081-0.484,2.085-2.069c0.008-3.313-0.02-6.627,0.019-9.939
			c0.008-0.773-0.185-1.04-1-1.039c-11.446,0.024-22.892,0.02-34.338,0.002c-0.703-0.001-1.086,0.142-1.214,0.922
			c-0.181,1.097-0.797,1.979-1.698,2.65c-1.022,0.763-2.218,1.156-3.423,1.442c-0.762,0.181-0.953,0.532-0.938,1.234
			c0.03,1.505,0.001,3.012,0.005,4.517c0.004,1.829,0.443,2.266,2.293,2.267C182.513,203.332,188.838,203.331,195.164,203.331z
			 M195.177,177.304c-6.406,0-12.813-0.003-19.22,0.001c-1.516,0.001-2.027,0.495-2.062,1.954c-0.064,2.639-0.064,2.639,2.598,2.668
			c0.43,0.003,0.86,0.015,1.29,0.008c0.25-0.004,0.569,0.04,0.653-0.275c0.398-1.487,1.577-1.325,2.702-1.325
			c11.309,0.005,22.617,0.009,33.927-0.019c0.507-0.001,1.364,0.482,1.433-0.686c0.077-1.323-0.323-2.122-1.328-2.295
			c-0.376-0.065-0.771-0.033-1.158-0.033C207.734,177.301,201.456,177.301,195.177,177.304z"/>
		<path fill-rule="evenodd" clip-rule="evenodd" fill="#F2F2F2" d="M129.112,216.15c1.275-0.272,1.532-1.176,1.528-2.324
			c-0.021-5.208-0.011-10.417-0.008-15.626c0.006-14.506,0.015-29.013,0.022-43.52c0.002-2.425,0.492-2.906,2.973-2.904
			c4.347,0.005,8.695,0.039,13.042,0.006c0.875-0.006,1.085,0.292,1.061,1.114c-0.062,2.021-0.035,4.045-0.044,6.067
			c-0.497,0.007-0.993,0.016-1.488,0.024c-1.024-0.016-2.048-0.03-3.072-0.046c-0.158-1.128-0.802-1.638-1.944-1.604
			c-1.118,0.034-2.237,0.004-3.356,0.008c-1.893,0.006-2.252,0.361-2.252,2.266c-0.002,17.688-0.002,35.377,0,53.065
			c0,1.954,0.372,2.326,2.344,2.326c16.097,0.007,32.193,0.013,48.289,0.013c14.117,0,28.233-0.006,42.35-0.014
			c1.713-0.001,2.181-0.442,2.182-2.1c0.005-14.719-0.005-29.438,0.018-44.157c0.002-1.188-0.298-2.025-1.574-2.253
			c-0.021-0.883-0.042-1.763-0.064-2.646c0.497-0.522,0.158-1.166,0.257-1.748c2.778-1.165,5.34-2.707,7.765-4.483
			c0.004,1.653,0.008,3.308,0.012,4.963c-1.149,0.394-1.499,1.243-1.498,2.399c0.014,16.327,0.011,32.653-0.002,48.98
			c-0.001,1.127,0.358,1.922,1.529,2.193c-0.004,0.989-0.008,1.98-0.012,2.97c-0.513,0.026-1.028,0.075-1.542,0.075
			c-13.725,0.004-27.452,0.002-41.178,0.004c-1.712,0.001-2.178,0.367-2.408,1.841c-0.401,2.575-1.339,3.43-3.909,3.427
			c-3.527-0.005-7.054-0.048-10.58-0.105c-2.002-0.032-2.989-0.958-3.24-2.935c-0.241-1.901-0.614-2.228-2.576-2.228
			c-10.197-0.001-20.396,0.006-30.594-0.005c-3.999-0.004-7.998-0.048-11.997-0.074C129.134,218.132,129.124,217.141,129.112,216.15
			z"/>
		<path fill-rule="evenodd" clip-rule="evenodd" fill="#3C5762" d="M129.146,219.122c3.999,0.026,7.998,0.069,11.997,0.074
			c10.198,0.011,20.396,0.003,30.594,0.005c1.962,0,2.335,0.327,2.576,2.228c0.251,1.978,1.238,2.903,3.24,2.935
			c3.526,0.058,7.053,0.1,10.58,0.105c2.57,0.003,3.508-0.852,3.909-3.427c0.229-1.474,0.696-1.84,2.408-1.841
			c13.726-0.002,27.453,0,41.178-0.004c0.514,0,1.028-0.049,1.542-0.075c2.492,0.032,4.983,0.068,7.474,0.094
			c1.889,0.019,2.324,0.455,2.327,2.379c0.003,2.236,0.033,4.474-0.006,6.709c-0.079,4.504-3.317,7.936-7.792,8.196
			c-1.973,0.113-3.955,0.059-5.932,0.059c-21.375,0.003-42.75,0-64.125,0.003c-0.472,0-0.944,0.034-1.417,0.052
			c-1.32-0.195-2.64-0.187-3.961-0.009c-8.247-0.015-16.493-0.033-24.74-0.046c-3.352-0.006-6.702-0.037-10.052,0.012
			c-2.008,0.028-3.932-0.217-5.721-1.182c-0.755-0.687-1.511-1.373-2.268-2.061c-1.273-1.931-1.73-4.053-1.629-6.356
			c0.084-1.927,0.004-3.862,0.021-5.792c0.013-1.398,0.545-1.934,1.955-1.958C123.917,219.174,126.531,219.154,129.146,219.122z
			 M183.194,233.49c17.222,0,34.442,0.003,51.665-0.004c1.461-0.002,2.932,0.02,4.384-0.121c2.675-0.258,4.538-2.327,4.603-5.018
			c0.04-1.635-0.028-3.274,0.042-4.907c0.04-0.902-0.246-1.163-1.153-1.161c-15.543,0.026-31.085,0.023-46.627,0.003
			c-0.718-0.002-1.029,0.203-1.273,0.896c-0.994,2.828-3.157,4.355-6.169,4.383c-3.703,0.033-7.406,0.03-11.108,0.013
			c-2.772-0.013-5.078-1.548-5.975-4.108c-0.327-0.935-0.733-1.199-1.715-1.196c-10.763,0.043-21.526,0.027-32.29,0.027
			c-4.649,0-9.299-0.008-13.948,0.013c-0.438,0.002-1.172-0.305-1.166,0.566c0.014,2.149-0.263,4.325,0.118,6.443
			c0.49,2.729,2.673,4.169,5.979,4.169C146.771,233.493,164.982,233.49,183.194,233.49z"/>
		<path fill-rule="evenodd" clip-rule="evenodd" fill="#3C5762" d="M237.14,157.617c-2.424,1.776-4.986,3.318-7.765,4.483
			c-3.759,1.314-7.629,1.894-11.607,1.738c-1.147-0.199-2.399-0.847-3.437-0.177c-1.715,1.105-3.254,2.481-4.868,3.744
			c-0.34,0.221-0.679,0.442-1.018,0.662c-1.258,0.219-1.948-0.31-2.104-1.575c-0.209-1.689-0.562-3.373-0.611-5.065
			c-0.041-1.371-0.648-2.114-1.82-2.571c-3.291-2.451-6.016-5.412-8.065-8.979c-1.184-2.229-2.083-4.568-2.749-7
			c-0.229-1.452-0.458-2.902-0.688-4.354c-0.234-5.208,0.582-10.223,3.169-14.793c5.609-9.91,14.171-14.724,25.56-14.499
			c0.171,0.003,0.343-0.013,0.513-0.02c1.457,0.234,2.913,0.468,4.37,0.702c4.332,1.052,8.158,3.102,11.602,5.9
			c0.956,0.96,1.909,1.921,2.865,2.881c2.768,3.459,4.781,7.298,5.831,11.619c0.229,1.447,0.457,2.894,0.684,4.34
			c0.205,5.854-1.06,11.328-4.166,16.344C241.282,153.507,239.242,155.586,237.14,157.617z M221.912,160.492
			c3.012-0.112,5.842-0.962,8.476-2.348c7.814-4.107,12.365-10.497,13.265-19.364c0.314-1.638,0.294-3.273-0.05-4.905
			c-0.402-4.945-2.326-9.239-5.553-12.975c-0.769-1.042-1.667-1.955-2.71-2.725c-3.634-3.164-7.823-5.068-12.631-5.568
			c-1.636-0.338-3.284-0.275-4.934-0.142c-0.214-0.003-0.43-0.026-0.643-0.006c-11.32,1.029-20.706,10.637-21.509,22.013
			c-0.09,1.612-0.243,3.226,0.139,4.824c0.452,4.951,2.378,9.253,5.681,12.954c0.718,1.022,1.603,1.876,2.614,2.604
			c0.419,0.361,0.781,0.862,1.266,1.062c2.902,1.19,3.658,3.556,3.66,6.39c0,0.36-0.145,0.878,0.243,1.059
			c0.395,0.185,0.664-0.283,0.946-0.51c1.995-1.611,3.898-3.457,6.828-2.403C218.635,160.735,220.271,160.827,221.912,160.492z"/>
		<path fill-rule="evenodd" clip-rule="evenodd" fill="#3C5762" d="M237.181,216.152c-1.17-0.271-1.53-1.065-1.529-2.193
			c0.013-16.327,0.016-32.653,0.002-48.98c-0.001-1.157,0.349-2.005,1.498-2.399c0.124,0.017,0.249,0.034,0.373,0.05
			c1.023,0.373,1.376,1.133,1.318,2.176c-0.025,0.456,0.053,0.917,0.086,1.375c-0.139,6.022-0.116,12.045-0.012,18.067
			c-0.139,1.729-0.146,3.458,0.012,5.186c-0.139,6.022-0.116,12.044-0.012,18.066c-0.143,1.73-0.143,3.46,0.012,5.189
			c-0.033,0.457-0.106,0.917-0.089,1.372C238.881,215.247,238.424,216.003,237.181,216.152z"/>
		<path fill-rule="evenodd" clip-rule="evenodd" fill="#FCD1B9" d="M166.879,124.846c0.014,7.361,0.031,14.723,0.04,22.085
			c0.007,4.951,0,9.903,0.002,14.854c0.001,1.89,0.303,2.205,2.117,2.586c5.089,1.067,8.991,3.764,11.386,8.46
			c0.672,1.318,0.636,1.304-0.865,1.373c-1.397,0.064-2.547-0.205-3.78-1.086c-4.519-3.227-10.823-0.127-11.466,5.537
			c-0.235,2.08-0.075,4.12,0.948,6.025c1.706,3.177,5.031,4.784,8.567,4.101c0.379-0.073,0.756-0.165,1.137-0.236
			c0.952-0.179,1.643,0.219,1.921,1.103c0.285,0.903-0.136,1.565-0.984,1.992c-5.418,2.724-12.362,0.083-14.485-5.536
			c-0.343-0.908-0.86-1.526-1.904-1.323c-1.07,0.207-1.264,1.024-1.215,1.968c0.274,5.305,1.536,10.273,4.869,14.56
			c0.834,1.074,0.833,2.065,0.055,2.771c-0.904,0.821-1.764,0.58-2.67-0.081c-4.267-3.111-6.065-7.551-6.84-12.556
			c-0.231-1.494-0.279-2.997-0.297-4.505c-0.016-1.297-0.576-1.936-1.587-1.927s-1.509,0.64-1.515,1.963
			c-0.024,5.584,1.098,10.854,4.342,15.52c0.461,0.664,0.308,0.846-0.444,0.91c-2.32,0.199-4.134-0.634-5.387-2.597
			c-2.251-3.528-3.216-7.464-3.637-11.577c-0.8-7.81,0.914-15.125,4.288-22.12c1.011-2.096,1.416-4.302,1.411-6.622
			c-0.022-11.41-0.017-22.821-0.02-34.231c0-0.473,0.021-0.946,0.032-1.418c2.914-0.007,5.828-0.013,8.741-0.02
			c1.552,0.006,3.105,0.012,4.657,0.019C165.156,124.839,166.018,124.841,166.879,124.846z"/>
		<path fill-rule="evenodd" clip-rule="evenodd" fill="#3ECF8E" d="M195.164,203.331c-6.326,0-12.651,0.001-18.976-0.001
			c-1.85-0.001-2.289-0.438-2.293-2.267c-0.004-1.505,0.024-3.012-0.005-4.517c-0.014-0.702,0.176-1.053,0.938-1.234
			c1.206-0.287,2.401-0.68,3.423-1.442c0.901-0.672,1.518-1.553,1.698-2.65c0.128-0.78,0.512-0.923,1.214-0.922
			c11.446,0.018,22.892,0.022,34.338-0.002c0.816-0.001,1.009,0.265,1,1.039c-0.038,3.313-0.01,6.626-0.019,9.939
			c-0.004,1.585-0.486,2.067-2.085,2.069c-6.412,0.006-12.823,0.003-19.234,0.003C195.164,203.34,195.164,203.335,195.164,203.331z
			 M185.311,194.058c0,0.003,0,0.005,0,0.008c-0.901,0-1.801-0.029-2.701,0.009c-0.953,0.038-1.527,0.549-1.545,1.527
			c-0.018,0.986,0.56,1.54,1.501,1.565c1.756,0.049,3.515,0.037,5.272-0.006c0.941-0.023,1.546-0.541,1.55-1.525
			c0.004-1.05-0.625-1.545-1.634-1.572C186.94,194.04,186.125,194.058,185.311,194.058z M191.633,195.756
			c0.14,0.808,0.61,1.426,1.574,1.39c0.945-0.035,1.53-0.644,1.498-1.571c-0.031-0.906-0.589-1.52-1.569-1.489
			C192.172,194.117,191.693,194.697,191.633,195.756z"/>
		<path fill-rule="evenodd" clip-rule="evenodd" fill="#F2F2F2" d="M203.91,158.856c-1.49,0.038-2.979,0.073-4.468,0.109
			c-0.427-0.007-0.854-0.016-1.281-0.024c-0.186-1.282-0.982-1.621-2.195-1.615c-8.212,0.033-16.425,0.004-24.638,0.038
			c-0.963,0.005-1.422-0.172-1.32-1.259c0.101-1.066,0.08-2.152,0.005-3.222c-0.066-0.933,0.293-1.148,1.174-1.143
			c6.32,0.034,12.642,0.004,18.963,0.029c1.196,0.005,2.03-0.312,2.143-1.646c1.185-0.068,2.405,0.359,3.552-0.247
			C197.894,153.444,200.619,156.405,203.91,158.856z"/>
		<path fill-rule="evenodd" clip-rule="evenodd" fill="#3ECF8E" d="M195.177,177.302c6.279,0,12.557-0.001,18.835,0.001
			c0.387,0,0.782-0.033,1.158,0.033c1.005,0.174,1.405,0.972,1.328,2.295c-0.069,1.168-0.926,0.685-1.433,0.686
			c-11.31,0.027-22.619,0.023-33.927,0.019c-1.125,0-2.304-0.162-2.702,1.325c-0.084,0.314-0.402,0.271-0.653,0.275
			c-0.43,0.007-0.859-0.004-1.29-0.008c-2.662-0.029-2.662-0.029-2.598-2.668c0.035-1.459,0.546-1.953,2.062-1.954
			C182.364,177.301,188.771,177.304,195.177,177.302z"/>
		<path fill-rule="evenodd" clip-rule="evenodd" fill="#3C5762" d="M142.331,211.836c1.639,0.005,3.278,0.01,4.918,0.015
			c6.111-0.005,12.223-0.01,18.335-0.015c1.64,0.005,3.278,0.01,4.917,0.015c6.112-0.005,12.224-0.01,18.336-0.015
			c1.639,0.005,3.277,0.01,4.917,0.015c6.112-0.005,12.224-0.01,18.336-0.015c1.639,0.005,3.277,0.01,4.917,0.015
			c3.444,0,6.888,0,10.332,0c0.168,0.033,0.269-0.013,0.239-0.208c0.002-3.445,0.004-6.89,0.005-10.334
			c-0.005-1.637-0.01-3.274-0.015-4.913c0.005-6.113,0.01-12.226,0.015-18.34c-0.005-1.637-0.01-3.275-0.015-4.913
			c0.021-1.498,0.084-2.998,0.051-4.496c-0.024-1.157,0.432-1.881,1.564-2.156c1.276,0.229,1.576,1.065,1.574,2.253
			c-0.023,14.719-0.013,29.438-0.018,44.157c0,1.657-0.468,2.099-2.182,2.1c-14.117,0.007-28.232,0.014-42.35,0.014
			c-16.096,0-32.192-0.006-48.289-0.013c-1.972,0-2.344-0.372-2.344-2.326c-0.002-17.688-0.002-35.377,0-53.065
			c0-1.905,0.359-2.26,2.252-2.266c1.119-0.004,2.239,0.026,3.356-0.008c1.142-0.034,1.786,0.475,1.944,1.604
			c-0.268,1.163-1.05,1.58-2.179,1.52c-0.512-0.025-1.029,0.026-1.539-0.011c-0.561-0.039-0.744,0.177-0.735,0.734
			c0.04,2.351,0.043,4.702,0.06,7.053c0.004,1.638,0.007,3.275,0.012,4.913c-0.004,6.113-0.008,12.227-0.012,18.34
			c0.004,1.638,0.007,3.275,0.012,4.912c-0.002,5.082-0.006,10.162-0.008,15.242c-0.029,0.195,0.07,0.241,0.239,0.208
			C140.094,211.847,141.213,211.842,142.331,211.836z"/>
		<path fill-rule="evenodd" clip-rule="evenodd" fill="#CCCCCC" d="M183.194,233.49c-18.211,0-36.423,0.003-54.634-0.002
			c-3.306,0-5.489-1.439-5.979-4.169c-0.381-2.118-0.104-4.294-0.118-6.443c-0.006-0.871,0.728-0.564,1.166-0.566
			c4.649-0.021,9.299-0.013,13.948-0.013c10.764,0,21.527,0.016,32.29-0.027c0.981-0.003,1.388,0.261,1.715,1.196
			c0.896,2.56,3.202,4.096,5.975,4.108c3.703,0.017,7.406,0.02,11.108-0.013c3.012-0.027,5.175-1.555,6.169-4.383
			c0.244-0.693,0.556-0.898,1.273-0.896c15.542,0.021,31.084,0.023,46.627-0.003c0.907-0.002,1.192,0.259,1.153,1.161
			c-0.07,1.633-0.002,3.272-0.042,4.907c-0.065,2.691-1.928,4.76-4.603,5.018c-1.452,0.141-2.922,0.119-4.384,0.121
			C217.636,233.493,200.416,233.49,183.194,233.49z"/>
		<path fill-rule="evenodd" clip-rule="evenodd" fill="#3C5762" d="M185.311,194.058c0.814,0,1.629-0.018,2.443,0.005
			c1.009,0.027,1.638,0.522,1.634,1.572c-0.004,0.985-0.609,1.502-1.55,1.525c-1.757,0.043-3.517,0.056-5.272,0.006
			c-0.941-0.025-1.519-0.579-1.501-1.565c0.018-0.978,0.592-1.489,1.545-1.527c0.899-0.038,1.8-0.009,2.701-0.009
			C185.311,194.063,185.311,194.061,185.311,194.058z"/>
		<path fill-rule="evenodd" clip-rule="evenodd" fill="#3C5762" d="M191.633,195.756c0.06-1.059,0.539-1.639,1.503-1.669
			c0.979-0.031,1.538,0.583,1.569,1.489c0.032,0.927-0.553,1.536-1.498,1.571C192.243,197.182,191.773,196.564,191.633,195.756z"/>
		<path fill-rule="evenodd" clip-rule="evenodd" fill="#F1F1F1" d="M138.976,211.852c-0.168,0.033-0.268-0.013-0.239-0.208
			C138.816,211.713,138.896,211.783,138.976,211.852z"/>
		<path fill-rule="evenodd" clip-rule="evenodd" fill="#F1F1F1" d="M227.338,211.852c0.08-0.069,0.16-0.138,0.239-0.208
			C227.607,211.839,227.507,211.885,227.338,211.852z"/>
	</g>
	<g>
		<g>
			<text transform="matrix(1 0 0 1 211.7451 148.6655)" fill="#3ECF8E" font-family="'BloggerSans-Medium'" font-size="33.9876">S</text>
			<g>
				<line fill="#3ECF8E" x1="220.112" y1="121.127" x2="220.112" y2="151.777"/>
				<path fill="#3ECF8E" d="M220.112,152.933c-0.639,0-1.156-0.518-1.156-1.156v-30.65c0-0.639,0.518-1.156,1.156-1.156
					c0.64,0,1.157,0.518,1.157,1.156v30.65C221.27,152.416,220.752,152.933,220.112,152.933z"/>
			</g>
		</g>
	</g>
</g>
</svg>
