<?xml version="1.0" encoding="utf-8"?>
<!-- Generator: Adobe Illustrator 16.0.3, SVG Export Plug-In . SVG Version: 6.00 Build 0)  -->
<!DOCTYPE svg PUBLIC "-//W3C//DTD SVG 1.1//EN" "http://www.w3.org/Graphics/SVG/1.1/DTD/svg11.dtd">
<svg version="1.1" id="Capa_1" xmlns="http://www.w3.org/2000/svg" xmlns:xlink="http://www.w3.org/1999/xlink" x="0px" y="0px"
	 width="60px" height="60px" viewBox="0 0 60 60" enable-background="new 0 0 60 60" xml:space="preserve">
<g>
	<g>
		<path fill="#F2F2F2" d="M-78.188-103.428c0-1.945-1.577-3.523-3.522-3.523h-30.272c-1.945,0-3.523,1.578-3.523,3.523v50.758
			h37.317V-103.428z"/>
		<path fill="#3C5762" d="M-77.445-51.928h-38.802v-51.5c0-2.352,1.913-4.265,4.265-4.265h30.272c2.352,0,4.265,1.913,4.265,4.265
			V-51.928z M-114.763-53.413h35.833v-50.016c0-1.533-1.247-2.78-2.78-2.78h-30.272c-1.533,0-2.781,1.247-2.781,2.78V-53.413z"/>
	</g>
	<path fill="#3C5762" d="M-101.934-101.915h-1.376c-0.41,0-0.742-0.333-0.742-0.742c0-0.411,0.332-0.743,0.742-0.743h1.376
		c0.41,0,0.742,0.333,0.742,0.743C-101.192-102.248-101.524-101.915-101.934-101.915z"/>
	<path fill="#3C5762" d="M-90.134-101.915h-9.412c-0.41,0-0.742-0.333-0.742-0.742c0-0.411,0.332-0.743,0.742-0.743h9.412
		c0.41,0,0.742,0.333,0.742,0.743C-89.392-102.248-89.725-101.915-90.134-101.915z"/>
	<g>
		<path fill="#FFFFFF" d="M-82.738-67.83c0,2.083-1.689,3.773-3.774,3.773h-20.668c-2.084,0-3.774-1.689-3.774-3.773v-26.954
			c0-2.084,1.69-3.773,3.774-3.773h20.668c2.084,0,3.774,1.689,3.774,3.773V-67.83z"/>
		<path fill="#3C5762" d="M-86.512-63.315h-20.668c-2.49,0-4.516-2.025-4.516-4.515v-26.954c0-2.49,2.026-4.516,4.516-4.516h20.668
			c2.49,0,4.516,2.026,4.516,4.516v26.954C-81.996-65.34-84.022-63.315-86.512-63.315z M-107.18-97.815
			c-1.671,0-3.031,1.36-3.031,3.031v26.954c0,1.671,1.36,3.031,3.031,3.031h20.668c1.671,0,3.031-1.359,3.031-3.031v-26.954
			c0-1.671-1.36-3.031-3.031-3.031H-107.18z"/>
	</g>
	<g>
		<path fill="#CCCCCC" d="M-115.505-59.139v7.572c0,1.946,1.578,3.523,3.523,3.523h30.272c1.945,0,3.522-1.577,3.522-3.523v-7.572
			H-115.505z"/>
		<path fill="#3C5762" d="M-81.71-47.301h-30.272c-2.352,0-4.265-1.914-4.265-4.266v-8.314h38.802v8.314
			C-77.445-49.214-79.358-47.301-81.71-47.301z M-114.763-58.396v6.83c0,1.533,1.248,2.781,2.781,2.781h30.272
			c1.533,0,2.78-1.248,2.78-2.781v-6.83H-114.763z"/>
	</g>
	<g>
		<circle fill="#B9F4BC" cx="-96.846" cy="-53.426" r="2.835"/>
		<path fill="#3C5762" d="M-96.846-49.848c-1.973,0-3.578-1.605-3.578-3.579c0-1.973,1.604-3.578,3.578-3.578
			c1.973,0,3.578,1.605,3.578,3.578C-93.268-51.453-94.874-49.848-96.846-49.848z M-96.846-55.52c-1.154,0-2.093,0.939-2.093,2.093
			c0,1.155,0.939,2.093,2.093,2.093c1.154,0,2.093-0.938,2.093-2.093C-94.753-54.58-95.692-55.52-96.846-55.52z"/>
	</g>
	<g>
		<polygon fill="#3ECF8E" points="-84.463,-101.537 -82.997,-98.566 -79.719,-98.09 -82.091,-95.778 -81.531,-92.514 
			-84.463,-94.055 -87.395,-92.514 -86.834,-95.778 -89.207,-98.09 -85.929,-98.566 		"/>
		<path fill="#3ECF8E" d="M-84.463-94.798c0.119,0,0.238,0.029,0.346,0.086l1.601,0.841l-0.306-1.782
			c-0.042-0.241,0.039-0.486,0.214-0.657l1.295-1.262l-1.789-0.26c-0.242-0.035-0.451-0.187-0.559-0.406l-0.801-1.621l-0.8,1.621
			c-0.108,0.219-0.317,0.371-0.559,0.406l-1.79,0.26l1.295,1.262c0.175,0.17,0.255,0.416,0.213,0.657l-0.306,1.782l1.6-0.841
			C-84.7-94.769-84.582-94.798-84.463-94.798z"/>
	</g>
	<ellipse fill="#F2F2F2" cx="-96.78" cy="-69.358" rx="11.892" ry="2.507"/>
	<g>
		<path fill="#3C5762" d="M-91.324-71.03h-10.239c-0.41,0-0.742-0.333-0.742-0.742v-2.384c0-0.069,0.01-0.137,0.028-0.203
			l0.746-2.629l-3.008-9.75l-3.261-0.941c-0.394-0.114-0.621-0.525-0.507-0.918c0.114-0.394,0.525-0.621,0.919-0.508l3.647,1.052
			c0.24,0.069,0.43,0.255,0.503,0.494l3.191,10.344c0.042,0.137,0.043,0.284,0.005,0.421l-0.779,2.741v1.539h9.497
			c0.41,0,0.742,0.332,0.742,0.742C-90.582-71.362-90.914-71.03-91.324-71.03z"/>
		<g>
			<circle fill="#FFFFFF" cx="-91.499" cy="-71.982" r="2.91"/>
			<path fill="#3C5762" d="M-91.499-68.33c-2.014,0-3.653-1.639-3.653-3.653s1.639-3.653,3.653-3.653
				c2.015,0,3.653,1.639,3.653,3.653S-89.484-68.33-91.499-68.33z M-91.499-74.15c-1.195,0-2.168,0.972-2.168,2.167
				c0,1.196,0.973,2.168,2.168,2.168s2.168-0.972,2.168-2.168C-89.331-73.178-90.304-74.15-91.499-74.15z"/>
		</g>
		<g>
			<circle fill="#FFFFFF" cx="-101.755" cy="-71.982" r="2.91"/>
			<path fill="#3C5762" d="M-101.755-68.33c-2.014,0-3.652-1.639-3.652-3.653s1.638-3.653,3.652-3.653s3.653,1.639,3.653,3.653
				S-99.741-68.33-101.755-68.33z M-101.755-74.15c-1.195,0-2.168,0.972-2.168,2.167c0,1.196,0.973,2.168,2.168,2.168
				s2.168-0.972,2.168-2.168C-99.586-73.178-100.56-74.15-101.755-74.15z"/>
		</g>
		<g>
			<path fill="#B9F4BC" d="M-103.191-84.892c0,0,11.51,0,15.409,0c0.668,0,1.683,0.531,1.683,2.074c0,2.396-2.139,6.066-5.926,6.066
				s-8.801,0-8.801,0L-103.191-84.892z"/>
			<path fill="#3C5762" d="M-92.025-76.009h-8.801c-0.33,0-0.621-0.218-0.712-0.536l-2.366-8.141
				c-0.065-0.224-0.021-0.466,0.119-0.653c0.141-0.187,0.36-0.297,0.594-0.297h15.409c0.975,0,2.425,0.75,2.425,2.817
				C-85.357-79.974-87.893-76.009-92.025-76.009z M-100.269-77.494h8.244c3.451,0,5.183-3.413,5.183-5.324
				c0-1.317-0.902-1.332-0.94-1.332h-14.42L-100.269-77.494z"/>
		</g>
	</g>
</g>
<g>
	<g>
		<g>
			<path fill="#B9F4BC" d="M578.636,166.126h-66.54c-7.146,0-12.938,5.792-12.938,12.938v34.589c0,7.146,5.792,12.938,12.938,12.938
				h13.446l1.252,12.322l8.423-12.322h43.418c7.146,0,12.938-5.792,12.938-12.938v-34.589
				C591.573,171.919,585.781,166.126,578.636,166.126z"/>
			<path fill="#3C5762" d="M526.795,240.485c-0.129,0-0.259-0.016-0.387-0.048c-0.64-0.163-1.11-0.709-1.176-1.365l-1.109-10.909
				h-12.026c-8.001,0-14.51-6.509-14.51-14.51v-34.589c0-8.001,6.509-14.51,14.51-14.51h66.54c8.001,0,14.51,6.509,14.51,14.51
				v34.589c0,8.001-6.509,14.51-14.51,14.51h-42.589l-7.954,11.637C527.795,240.235,527.306,240.485,526.795,240.485z
				 M512.096,167.699c-6.267,0-11.366,5.099-11.366,11.366v34.589c0,6.267,5.099,11.366,11.366,11.366h13.446
				c0.806,0,1.482,0.611,1.563,1.414l0.818,8.042l5.996-8.771c0.292-0.429,0.778-0.685,1.298-0.685h43.418
				c6.267,0,11.366-5.099,11.366-11.366v-34.589c0-6.267-5.099-11.366-11.366-11.366H512.096z"/>
		</g>
		<path fill="#3C5762" d="M551.636,210.743h-16.898c-0.869,0-1.572-0.704-1.572-1.572c0-0.868,0.704-1.572,1.572-1.572h16.898
			c0.868,0,1.572,0.704,1.572,1.572C553.208,210.039,552.504,210.743,551.636,210.743z"/>
		<path fill="#3C5762" d="M570.196,197.441h-3.65c-0.868,0-1.572-0.704-1.572-1.572c0-0.868,0.704-1.572,1.572-1.572h3.65
			c0.868,0,1.572,0.704,1.572,1.572C571.768,196.737,571.064,197.441,570.196,197.441z"/>
		<path fill="#3C5762" d="M560.211,197.441h-24.969c-0.868,0-1.572-0.704-1.572-1.572c0-0.868,0.704-1.572,1.572-1.572h24.969
			c0.868,0,1.572,0.704,1.572,1.572C561.783,196.737,561.08,197.441,560.211,197.441z"/>
	</g>
	<g>
		<g>
			<path fill="#F2F2F2" d="M466.458,120.319h66.54c7.145,0,12.938,5.795,12.938,12.94v34.589c0,7.146-5.792,12.938-12.938,12.938
				h-13.446l-1.253,12.322l-8.423-12.322h-43.417c-7.146,0-12.938-5.792-12.938-12.938v-34.589
				C453.521,126.114,459.313,120.319,466.458,120.319z"/>
			<path fill="#3C5762" d="M518.299,194.68c-0.511,0-1-0.25-1.298-0.685l-7.955-11.637h-42.588c-8.001,0-14.51-6.509-14.51-14.51
				v-34.589c0-8.002,6.509-14.512,14.51-14.512h66.54c8.001,0,14.51,6.51,14.51,14.512v34.589c0,8.001-6.509,14.51-14.51,14.51
				h-12.026l-1.109,10.908c-0.066,0.657-0.536,1.203-1.176,1.365C518.558,194.665,518.428,194.68,518.299,194.68z M466.458,121.891
				c-6.267,0-11.366,5.1-11.366,11.368v34.589c0,6.267,5.099,11.366,11.366,11.366h43.417c0.519,0,1.005,0.256,1.298,0.685
				l5.997,8.773l0.818-8.044c0.081-0.804,0.757-1.414,1.563-1.414h13.446c6.267,0,11.366-5.099,11.366-11.366v-34.589
				c0-6.268-5.099-11.368-11.366-11.368H466.458z"/>
		</g>
		<path fill="#3C5762" d="M533.922,153.498h-41.719c-0.868,0-1.572-0.704-1.572-1.572c0-0.868,0.704-1.572,1.572-1.572h41.719
			c0.869,0,1.572,0.704,1.572,1.572C535.494,152.794,534.791,153.498,533.922,153.498z"/>
		<path fill="#3C5762" d="M482.213,153.498h-16.898c-0.868,0-1.572-0.704-1.572-1.572c0-0.868,0.704-1.572,1.572-1.572h16.898
			c0.868,0,1.572,0.704,1.572,1.572C483.785,152.794,483.081,153.498,482.213,153.498z"/>
		<path fill="#3C5762" d="M500.773,140.192h-3.65c-0.869,0-1.572-0.704-1.572-1.572s0.704-1.572,1.572-1.572h3.65
			c0.868,0,1.572,0.704,1.572,1.572S501.642,140.192,500.773,140.192z"/>
		<path fill="#3C5762" d="M490.788,140.192h-24.97c-0.868,0-1.572-0.704-1.572-1.572s0.704-1.572,1.572-1.572h24.97
			c0.868,0,1.572,0.704,1.572,1.572S491.656,140.192,490.788,140.192z"/>
	</g>
</g>
<g>
	<path fill-rule="evenodd" clip-rule="evenodd" fill="#3C5762" d="M0.401,55.412c0-5.781,0-11.562,0-17.343
		c0.678-1.623,1.973-2.063,3.611-1.958c1.03,0.066,2.068,0.009,3.103,0.007c0.748,0.148,1.47,0.377,1.902,1.057
		c0.237,0.374,0.393,0.267,0.65,0.054c0.964-0.799,1.952-1.569,2.91-2.373c1.491-1.25,3.029-2.403,4.811-3.243
		c2.537-1.197,5.016-2.512,7.523-3.774c0.221-0.112,0.452-0.214,0.688-0.292c1.495-0.491,2.826-0.193,3.913,0.934
		c1.091,1.13,1.333,2.474,0.777,3.945c-0.367,0.969-1.082,1.613-1.992,2.068c-0.706,0.354-1.407,0.718-2.11,1.078
		c0.191,0.104,0.342,0.117,0.493,0.117c3.524,0.001,7.048,0,10.573,0.002c0.598,0.001,1.19,0.045,1.752,0.282
		c1.7,0.718,2.533,2.634,1.854,4.353c-0.171,0.434-0.08,0.521,0.354,0.503c0.577-0.024,1.157-0.026,1.732,0.021
		c1.345,0.107,2.322,0.806,2.858,2.025c0.535,1.216,0.404,2.409-0.425,3.478c-0.752,0.966-1.779,1.361-3.056,1.332
		c0.147,0.344,0.272,0.638,0.398,0.931c0.005,0.192,0.009,0.384,0.015,0.576c0.046,1.707-1,3.109-2.663,3.502
		c-0.451,0.106-0.93,0.094-1.467,0.141c0.392,0.776,0.529,1.542,0.353,2.337c-0.38,1.718-1.746,2.744-3.688,2.746
		c-6.47,0.005-12.939,0-19.409,0.005c-0.394,0-0.76-0.082-1.122-0.219c-1.633-0.619-3.27-1.227-4.896-1.862
		c-0.311-0.121-0.443-0.092-0.62,0.212c-0.475,0.813-1.194,1.303-2.16,1.318c-1.367,0.02-2.734,0.019-4.101,0.004
		c-0.887-0.009-1.594-0.403-2.102-1.126C0.679,55.989,0.553,55.692,0.401,55.412z M25.709,56.19c0-0.003,0-0.003,0-0.006
		c3.16,0,6.32,0.001,9.479-0.001c0.212,0,0.426-0.007,0.634-0.038c0.876-0.135,1.458-0.797,1.463-1.651
		c0.003-0.857-0.571-1.529-1.449-1.674c-0.226-0.037-0.46-0.038-0.691-0.039c-1.444-0.007-2.89,0-4.334-0.017
		c-0.489-0.005-0.794-0.271-0.849-0.768c-0.052-0.477,0.238-0.827,0.756-0.92c0.169-0.031,0.345-0.027,0.519-0.027
		c1.541-0.001,3.083,0.002,4.625,0.001c1.156,0,2.312,0.021,3.468-0.01c1.076-0.029,1.786-0.885,1.653-1.929
		c-0.107-0.849-0.83-1.439-1.807-1.441c-2.717-0.007-5.435,0.001-8.15-0.005c-0.686-0.001-1.076-0.33-1.073-0.864
		c0.001-0.534,0.395-0.853,1.077-0.861c0.578-0.007,1.157-0.001,1.734-0.001c3.256,0,6.513,0.004,9.769-0.002
		c1.129-0.002,1.862-0.731,1.82-1.779c-0.037-0.945-0.763-1.592-1.83-1.594c-3.718-0.006-7.437-0.002-11.156-0.003
		c-0.269,0-0.539,0.019-0.802-0.067c-0.425-0.139-0.631-0.438-0.603-0.872c0.028-0.438,0.281-0.708,0.719-0.772
		c0.188-0.029,0.383-0.018,0.576-0.018c2.101-0.001,4.201,0.004,6.301-0.003c0.73-0.002,1.315-0.296,1.642-0.974
		c0.28-0.583,0.227-1.163-0.144-1.697c-0.418-0.602-1.036-0.737-1.725-0.736c-4.817,0.008-9.634,0.008-14.452,0.008
		c-0.973,0-1.313-0.158-1.43-0.657c-0.124-0.523,0.096-0.809,0.954-1.243c1.731-0.877,3.466-1.751,5.193-2.636
		c0.909-0.467,1.36-1.289,1.212-2.15c-0.235-1.372-1.621-2.093-2.915-1.452c-3.219,1.6-6.418,3.237-9.625,4.862
		c-0.119,0.061-0.23,0.141-0.334,0.225c-2.021,1.635-4.038,3.277-6.065,4.906c-0.235,0.189-0.318,0.388-0.318,0.685
		c0.006,4.49,0.006,8.979-0.008,13.469c0,0.352,0.121,0.496,0.438,0.613c1.712,0.63,3.417,1.28,5.121,1.935
		c0.365,0.14,0.729,0.209,1.123,0.208C19.389,56.185,22.549,56.19,25.709,56.19z M7.8,46.749c0-2.581,0.002-5.162,0-7.744
		c-0.001-0.833-0.262-1.102-1.105-1.11c-1.156-0.011-2.313-0.013-3.467,0.001C2.445,37.908,2.155,38.213,2.155,39
		c-0.003,5.182-0.004,10.363,0,15.544c0.001,0.777,0.309,1.075,1.094,1.08c1.137,0.005,2.273,0.003,3.41,0
		c0.873-0.003,1.14-0.266,1.141-1.131C7.802,51.912,7.8,49.331,7.8,46.749z"/>
	<path fill-rule="evenodd" clip-rule="evenodd" fill="#3C5762" d="M7.115,33.817c-0.708-0.191-0.848-0.386-0.848-1.209
		c0-3.794,0.003-7.587,0.003-11.381c0-5.161-0.002-10.322,0.001-15.483C6.273,4.249,6.95,3.244,8.193,2.865
		c0.391-0.119,0.792-0.138,1.199-0.138c15.732,0,31.466,0.002,47.2-0.007c1.548,0,2.492,0.768,3.008,2.166
		c0,14.183,0,28.366,0,42.548c-0.031,0.019-0.082,0.031-0.091,0.056c-0.516,1.489-1.621,2.021-3.123,2.012
		c-3.4-0.023-6.8-0.006-10.199-0.008c-0.817-0.001-0.994-0.126-1.275-0.876c0.265-0.76,0.405-0.867,1.215-0.867
		c3.448-0.003,6.896,0,10.345-0.003c1.063,0,1.386-0.32,1.386-1.373c0-13.504,0-27.009,0-40.513c0-1.068-0.307-1.379-1.371-1.381
		c-5.414-0.007-10.827-0.006-16.24-0.026c-0.449-0.001-0.583,0.109-0.581,0.571c0.021,3.661,0.013,7.321,0.01,10.981
		c-0.001,1.999-1.075,3.073-3.065,3.076c-2.427,0.002-4.855,0.002-7.282,0c-2.084-0.002-3.138-1.05-3.138-3.119
		c-0.001-3.66-0.001-7.321,0.002-10.98c0-0.306,0.029-0.53-0.432-0.529C20.27,4.473,14.78,4.462,9.29,4.466
		c-0.955,0-1.277,0.335-1.277,1.295c-0.001,4.757,0,9.516,0.001,14.274c0,4.18,0.002,8.361-0.001,12.541
		C8.011,33.408,7.831,33.644,7.115,33.817z M37.911,10.59c0-1.85-0.012-3.699,0.009-5.548c0.004-0.414-0.079-0.565-0.533-0.563
		C34.42,4.5,31.453,4.498,28.486,4.481c-0.417-0.002-0.553,0.084-0.551,0.534c0.022,3.66,0.011,7.321,0.013,10.981
		c0,1.015,0.296,1.318,1.3,1.32c2.447,0.004,4.894,0.003,7.34,0c1.038-0.001,1.321-0.292,1.322-1.352
		C37.913,14.174,37.91,12.382,37.911,10.59z"/>
	<path fill-rule="evenodd" clip-rule="evenodd" fill="#F2F2F2" d="M44.911,48.617c-0.73-0.001-1.461-0.002-2.192-0.003
		c-0.126-0.293-0.251-0.586-0.398-0.931c1.277,0.029,2.304-0.366,3.056-1.332c0.829-1.069,0.96-2.262,0.425-3.478
		c-0.537-1.219-1.514-1.918-2.858-2.025c-0.575-0.046-1.155-0.045-1.732-0.021c-0.433,0.018-0.524-0.07-0.354-0.503
		c0.679-1.719-0.154-3.635-1.854-4.353c-0.563-0.237-1.154-0.281-1.752-0.282c-3.525-0.002-7.048,0-10.573-0.002
		c-0.151,0-0.301-0.013-0.493-0.117c0.704-0.359,1.404-0.724,2.11-1.078c0.91-0.455,1.625-1.099,1.992-2.068
		c0.556-1.471,0.313-2.815-0.777-3.945c-1.087-1.127-2.418-1.425-3.913-0.934c-0.235,0.078-0.466,0.18-0.688,0.292
		c-2.507,1.262-4.986,2.577-7.523,3.774c-1.781,0.84-3.319,1.993-4.811,3.243c-0.958,0.803-1.946,1.574-2.91,2.373
		c-0.257,0.213-0.413,0.32-0.65-0.054c-0.432-0.68-1.154-0.909-1.902-1.057c0-0.767,0-1.534,0-2.3
		c0.716-0.173,0.896-0.409,0.897-1.242c0.004-4.179,0.001-8.36,0.001-12.541c-0.001-4.758-0.003-9.517-0.001-14.274
		c0-0.959,0.323-1.294,1.277-1.295c5.49-0.003,10.98,0.007,16.47-0.011c0.46-0.001,0.432,0.223,0.432,0.529
		c-0.003,3.66-0.003,7.321-0.002,10.98c0,2.068,1.053,3.116,3.138,3.119c2.427,0.002,4.854,0.002,7.282,0
		c1.99-0.003,3.063-1.078,3.065-3.076c0.003-3.66,0.011-7.32-0.01-10.981c-0.002-0.462,0.132-0.573,0.581-0.571
		c5.413,0.021,10.826,0.019,16.24,0.026c1.064,0.001,1.371,0.313,1.371,1.381c0,13.504,0,27.009,0,40.513
		c0,1.053-0.322,1.373-1.386,1.373c-3.449,0.003-6.896,0-10.345,0.003C45.316,47.75,45.176,47.857,44.911,48.617z"/>
	<path fill-rule="evenodd" clip-rule="evenodd" fill="#FCD1B9" d="M25.709,56.19c-3.16,0-6.32-0.005-9.48,0.004
		c-0.394,0.001-0.758-0.068-1.123-0.208c-1.704-0.655-3.409-1.305-5.121-1.935c-0.318-0.117-0.439-0.261-0.438-0.613
		c0.014-4.49,0.014-8.979,0.008-13.469c0-0.297,0.083-0.496,0.318-0.685c2.027-1.629,4.044-3.271,6.065-4.906
		c0.104-0.084,0.215-0.164,0.334-0.225c3.206-1.625,6.406-3.263,9.625-4.862c1.293-0.642,2.679,0.08,2.915,1.452
		c0.147,0.862-0.303,1.684-1.212,2.15c-1.728,0.885-3.462,1.759-5.193,2.636c-0.857,0.434-1.078,0.719-0.954,1.243
		c0.117,0.499,0.457,0.657,1.43,0.657c4.817,0,9.635,0,14.452-0.008c0.689,0,1.307,0.134,1.725,0.736
		c0.371,0.534,0.424,1.113,0.144,1.697c-0.327,0.677-0.912,0.971-1.642,0.974c-2.101,0.007-4.201,0.002-6.301,0.003
		c-0.193,0-0.388-0.011-0.576,0.018c-0.438,0.064-0.691,0.334-0.719,0.772c-0.028,0.434,0.178,0.733,0.603,0.872
		c0.263,0.086,0.533,0.067,0.802,0.067c3.719,0,7.438-0.003,11.156,0.003c1.066,0.002,1.792,0.649,1.83,1.594
		c0.042,1.048-0.69,1.777-1.82,1.779c-3.256,0.006-6.513,0.002-9.769,0.002c-0.578,0-1.156-0.006-1.734,0.001
		c-0.683,0.008-1.076,0.327-1.077,0.861c-0.002,0.534,0.387,0.863,1.073,0.864c2.716,0.006,5.434-0.001,8.15,0.005
		c0.977,0.002,1.7,0.592,1.807,1.441c0.132,1.044-0.577,1.9-1.653,1.929c-1.156,0.031-2.312,0.01-3.468,0.01
		c-1.542,0.001-3.084-0.002-4.625-0.001c-0.173,0-0.349-0.004-0.519,0.027c-0.519,0.093-0.809,0.443-0.756,0.92
		c0.054,0.497,0.359,0.763,0.849,0.768c1.444,0.016,2.89,0.01,4.334,0.017c0.23,0.001,0.465,0.001,0.691,0.039
		c0.877,0.146,1.452,0.817,1.449,1.674c-0.004,0.854-0.586,1.517-1.463,1.651c-0.208,0.031-0.422,0.038-0.634,0.038
		c-3.159,0.002-6.319,0.001-9.479,0.001C25.709,56.187,25.709,56.187,25.709,56.19z"/>
	<path fill-rule="evenodd" clip-rule="evenodd" fill="#3ECF8E" d="M7.8,46.749c0,2.582,0.001,5.163,0,7.744
		c-0.001,0.865-0.269,1.128-1.141,1.131c-1.136,0.003-2.273,0.005-3.41,0c-0.785-0.005-1.093-0.303-1.094-1.08
		c-0.004-5.181-0.004-10.362,0-15.544c0-0.788,0.291-1.093,1.072-1.104c1.155-0.015,2.312-0.012,3.467-0.001
		c0.843,0.008,1.104,0.277,1.105,1.11C7.802,41.587,7.8,44.168,7.8,46.749z"/>
	<path fill-rule="evenodd" clip-rule="evenodd" fill="#3ECF8E" d="M37.91,10.59c0,1.792,0.002,3.584,0,5.375
		c-0.001,1.06-0.284,1.351-1.322,1.352c-2.446,0.003-4.893,0.004-7.34,0c-1.004-0.002-1.3-0.305-1.3-1.32
		c-0.001-3.66,0.009-7.321-0.013-10.981c-0.002-0.45,0.134-0.537,0.551-0.534c2.967,0.017,5.934,0.019,8.901-0.002
		c0.455-0.003,0.538,0.149,0.533,0.563C37.899,6.891,37.911,8.74,37.91,10.59z"/>
</g>
<g>
	<g>
		<path fill-rule="evenodd" clip-rule="evenodd" fill="#3C5762" d="M-10.179-46.726c0.062-0.802,0.071-1.605-0.007-2.406
			c0.012-2.072,0.029-4.142,0.036-6.213c0.002-0.736-0.02-1.472-0.029-2.208c0.062-0.802,0.071-1.604-0.007-2.406
			c0.012-2.07,0.029-4.141,0.036-6.213c0.002-0.736-0.02-1.472-0.029-2.208c0.062-0.802,0.071-1.604-0.007-2.406
			c0.015-0.479,0.021-0.957,0.046-1.436c0.078-1.439,1.03-2.358,2.472-2.39c0.479-0.011,0.957-0.022,1.436-0.032
			c0.763,0.002,1.525,0.005,2.288,0.007c0.953,0.007,1.907,0.002,2.858,0.03c0.327,0.008,0.401-0.113,0.393-0.413
			c-0.022-0.914-0.017-1.827-0.023-2.741c-0.002-0.803-0.004-1.606-0.006-2.41c0.009-1.754,0.023-3.509,0.02-5.263
			c-0.001-0.472,0.119-0.855,0.629-0.932c0.476-0.071,0.731,0.224,0.838,0.665c-0.005,0.221-0.015,0.44-0.015,0.661
			c0.001,5.313-0.001,10.626,0.008,15.939c0.002,1.081-0.185,2.108-0.656,3.085c-1.572,3.256-2.369,6.662-1.997,10.299
			c0.196,1.916,0.646,3.747,1.694,5.39c0.583,0.915,1.429,1.302,2.508,1.209c0.35-0.029,0.421-0.114,0.207-0.423
			c-1.511-2.173-2.033-4.627-2.022-7.227c0.002-0.616,0.235-0.91,0.705-0.913c0.471-0.005,0.731,0.293,0.739,0.896
			c0.009,0.703,0.032,1.403,0.14,2.098c0.36,2.33,1.198,4.398,3.185,5.846c0.421,0.308,0.821,0.42,1.243,0.038
			c0.361-0.328,0.362-0.79-0.026-1.289c-1.553-1.997-2.139-4.311-2.268-6.78c-0.023-0.44,0.068-0.82,0.565-0.917
			c0.486-0.095,0.727,0.194,0.887,0.617c0.988,2.616,4.222,3.845,6.745,2.577c0.395-0.199,0.591-0.506,0.458-0.927
			c-0.13-0.412-0.451-0.597-0.894-0.514c-0.178,0.033-0.353,0.076-0.53,0.11c-1.646,0.317-3.195-0.43-3.99-1.91
			c-0.476-0.888-0.55-1.838-0.441-2.806c0.299-2.638,3.235-4.081,5.339-2.578c0.574,0.411,1.11,0.535,1.76,0.505
			c0.699-0.031,0.716-0.025,0.402-0.638c-1.114-2.187-2.932-3.443-5.302-3.94c-0.844-0.177-0.985-0.325-0.985-1.205
			c-0.001-2.305,0.001-4.611-0.001-6.917c-0.004-3.429-0.012-6.856-0.018-10.284c0.146-0.438,0.385-0.771,0.909-0.658
			c0.527,0.114,0.566,0.534,0.566,0.981c0,1.739,0.013,3.476,0.022,5.215c0.002,0.799,0.005,1.598,0.007,2.397
			c-0.011,0.938-0.016,1.875-0.036,2.813c-0.006,0.272,0.116,0.338,0.36,0.335c1.797-0.015,3.593-0.023,5.39-0.033
			c0.763,0.002,1.525,0.005,2.288,0.007c0.477,0.008,0.955,0.021,1.432,0.023c0.477,0.001,0.806,0.189,0.896,0.688
			c-0.053,0.622-0.441,0.769-0.999,0.767c-2.943-0.012-5.887,0.001-8.83-0.015c-0.41-0.002-0.577,0.098-0.546,0.533
			c0.035,0.498,0.044,1.003-0.002,1.5c-0.047,0.505,0.166,0.589,0.614,0.586c3.825-0.016,7.648-0.002,11.473-0.019
			c0.565-0.002,0.936,0.155,1.021,0.752c-0.131,0.521-0.474,0.729-1,0.712c-0.471-0.014-0.944,0.01-1.415,0.017
			c-2.847,0.001-5.693,0.004-8.541,0.005c-0.6-0.008-1.201-0.021-1.8-0.023c-0.127,0-0.302-0.051-0.33,0.157
			c-0.025,0.187,0.062,0.285,0.252,0.337c0.424,0.116,0.839,0.257,1.26,0.388c1.858,0.837,3.383,2.061,4.433,3.833
			c0.216,0.509,0.435,1.018,0.649,1.528c0.071,0.172,0.205,0.159,0.348,0.129c2.846-0.001,5.693-0.003,8.539-0.006
			c0.762,0.001,1.525,0.005,2.289,0.006c0.997,0.007,1.994,0.014,2.993,0.021c1.4,0.011,2.284,0.88,2.307,2.267
			c0.003,0.179,0.012,0.357,0.018,0.538c0.001,0.787,0.004,1.575,0.006,2.362c-0.009,2.342-0.025,4.685-0.021,7.027
			c0.001,0.603-0.018,1.191-0.258,1.753c-0.244,0.31-0.519,0.587-0.833,0.823c-0.461,0.198-0.95,0.254-1.443,0.287
			c-2.446-0.002-4.893-0.005-7.338-0.007c-0.763-0.001-1.528-0.004-2.291-0.005c-2.846,0.001-5.691,0.001-8.537,0.003
			c-0.591-0.102-1.1-0.367-1.541-0.768c-0.387-0.543-0.537-1.146-0.51-1.811c0.025-0.641-0.018-1.285,0.015-1.924
			c0.019-0.367-0.107-0.489-0.459-0.509c-0.852-0.048-1.639-0.343-2.407-0.692c-0.312-0.213-0.622-0.425-0.933-0.637
			c0.06,0.388,0.061,0.738,0.276,1.016c0.251,0.817,0.747,1.491,1.242,2.173c1.059,1.456,0.271,3.391-1.492,3.689
			c-0.794,0.133-1.442-0.202-2.041-0.677c-0.164-0.129-0.295-0.325-0.572-0.184c-0.761,0.389-1.583,0.372-2.406,0.322
			c-0.542-0.152-1.057-0.376-1.548-0.652c-0.181-0.144-0.36-0.29-0.542-0.435c-0.343-0.459-0.682-0.922-0.961-1.429
			c-0.628-1.144-0.993-2.377-1.296-3.635c-0.092-0.687-0.184-1.373-0.277-2.06c-0.102-1.377-0.093-2.752,0.109-4.123
			c0.329-2.204,0.976-4.313,1.89-6.341c0.572-0.923,0.76-1.933,0.669-3.003c-0.001-0.154-0.002-0.309-0.005-0.463
			c0.005-0.943-0.007-1.885,0.021-2.826c0.012-0.383-0.086-0.522-0.494-0.519c-2.023,0.015-4.048-0.001-6.072-0.003
			c-1.155-0.001-1.384,0.223-1.385,1.352c-0.004,6.756-0.007,13.51-0.01,20.266c-0.001,2.426-0.006,4.85,0.003,7.275
			c0.001,0.534-0.117,0.956-0.712,1.082c-0.551-0.069-0.768-0.403-0.768-0.938C-10.15-44.989-10.168-45.857-10.179-46.726z
			 M10.121-58.737c-0.207-0.474-0.048-0.979-0.133-1.462c0.01-0.797,0.24-1.515,0.874-2.124c-1.136-0.056-1.881,0.369-2.245,1.208
			c-0.436,1.007-0.194,2.394,0.544,3.111c0.034,0.041,0.068,0.081,0.103,0.121c0.276,0.359,0.684,0.46,1.093,0.554
			c0.25,0.057,0.371-0.003,0.422-0.313C10.879-58.233,10.561-58.507,10.121-58.737z M21.375-49.151c0,0.002,0,0.005,0,0.007
			c2.986,0,5.972,0.001,8.957-0.001c0.745-0.001,0.969-0.225,0.97-0.964c0.005-1.542-0.008-3.084,0.01-4.628
			c0.003-0.36-0.086-0.483-0.466-0.483c-5.33,0.012-10.66,0.009-15.989,0.001c-0.327,0-0.506,0.065-0.565,0.429
			c-0.084,0.511-0.371,0.922-0.792,1.235c-0.476,0.355-1.032,0.538-1.593,0.671c-0.355,0.085-0.444,0.249-0.438,0.576
			c0.013,0.7,0.001,1.402,0.002,2.103c0.002,0.852,0.206,1.056,1.067,1.056C15.484-49.15,18.43-49.151,21.375-49.151z
			 M21.382-61.271c-2.982,0-5.967-0.001-8.95,0.001c-0.706,0-0.945,0.23-0.96,0.91c-0.029,1.229-0.029,1.229,1.21,1.242
			c0.2,0.002,0.399,0.007,0.6,0.003c0.117-0.001,0.265,0.019,0.304-0.127c0.185-0.693,0.734-0.618,1.259-0.618
			c5.265,0.002,10.531,0.005,15.797-0.008c0.236,0,0.635,0.225,0.667-0.319c0.036-0.617-0.15-0.988-0.618-1.068
			c-0.176-0.032-0.36-0.016-0.54-0.016C27.229-61.272,24.306-61.272,21.382-61.271z"/>
		<path fill-rule="evenodd" clip-rule="evenodd" fill="#F2F2F2" d="M-9.382-43.182c0.595-0.126,0.714-0.548,0.712-1.082
			c-0.01-2.425-0.005-4.85-0.003-7.275c0.002-6.755,0.006-13.51,0.01-20.266c0.001-1.129,0.23-1.353,1.385-1.352
			c2.024,0.002,4.049,0.018,6.072,0.003c0.408-0.003,0.506,0.136,0.494,0.519c-0.028,0.94-0.016,1.883-0.021,2.826
			c-0.23,0.002-0.461,0.007-0.693,0.011c-0.476-0.007-0.954-0.015-1.43-0.022c-0.074-0.526-0.373-0.762-0.905-0.746
			c-0.521,0.016-1.042,0.002-1.563,0.003c-0.882,0.004-1.049,0.168-1.049,1.056c-0.001,8.236-0.001,16.473,0,24.709
			c0,0.91,0.173,1.083,1.091,1.083c7.496,0.004,14.991,0.006,22.485,0.006c6.574,0,13.146-0.002,19.721-0.006
			c0.797-0.001,1.015-0.206,1.015-0.978c0.002-6.854-0.002-13.708,0.008-20.562c0.001-0.554-0.139-0.944-0.733-1.049
			c-0.01-0.412-0.02-0.821-0.029-1.232c0.23-0.244,0.072-0.544,0.119-0.814c1.294-0.543,2.487-1.26,3.615-2.088
			c0.002,0.77,0.005,1.54,0.006,2.311c-0.536,0.184-0.698,0.579-0.698,1.118c0.007,7.603,0.006,15.204-0.001,22.807
			c0,0.525,0.167,0.895,0.712,1.021c-0.001,0.46-0.003,0.922-0.006,1.384c-0.239,0.011-0.479,0.034-0.717,0.034
			c-6.391,0.002-12.783,0.001-19.174,0.002c-0.797,0-1.014,0.171-1.122,0.858c-0.187,1.198-0.623,1.597-1.82,1.596
			c-1.642-0.002-3.284-0.023-4.926-0.05c-0.933-0.015-1.392-0.446-1.509-1.367c-0.111-0.885-0.286-1.037-1.2-1.037
			c-4.748-0.001-9.496,0.002-14.245-0.002c-1.862-0.002-3.725-0.023-5.586-0.034C-9.371-42.259-9.375-42.721-9.382-43.182z"/>
		<path fill-rule="evenodd" clip-rule="evenodd" fill="#3C5762" d="M-9.366-41.797c1.862,0.011,3.724,0.031,5.586,0.034
			c4.749,0.005,9.497,0.001,14.245,0.002c0.914,0,1.088,0.152,1.2,1.037c0.117,0.921,0.577,1.352,1.509,1.367
			c1.642,0.027,3.285,0.047,4.926,0.05c1.197,0.001,1.633-0.397,1.82-1.596c0.108-0.687,0.325-0.858,1.122-0.858
			c6.391-0.001,12.783,0,19.174-0.002c0.239,0,0.479-0.023,0.717-0.034c1.161,0.015,2.32,0.031,3.481,0.043
			c0.879,0.009,1.082,0.211,1.083,1.107c0.002,1.041,0.016,2.083-0.002,3.125c-0.036,2.097-1.545,3.695-3.628,3.815
			c-0.918,0.053-1.842,0.028-2.763,0.028c-9.953,0.001-19.906,0-29.858,0.001c-0.219,0-0.44,0.016-0.659,0.024
			c-0.616-0.091-1.23-0.087-1.845-0.003c-3.839-0.007-7.68-0.016-11.52-0.022c-1.561-0.002-3.121-0.017-4.682,0.005
			c-0.934,0.013-1.831-0.101-2.664-0.55c-0.351-0.32-0.703-0.638-1.055-0.959c-0.592-0.899-0.806-1.886-0.758-2.958
			c0.039-0.898,0.001-1.799,0.01-2.697c0.006-0.652,0.253-0.9,0.91-0.913C-11.8-41.774-10.583-41.783-9.366-41.797z M15.802-35.107
			c8.019,0,16.037,0.001,24.058-0.002c0.68-0.001,1.364,0.009,2.041-0.056c1.245-0.12,2.113-1.084,2.143-2.337
			c0.02-0.761-0.013-1.524,0.02-2.285c0.019-0.42-0.114-0.542-0.537-0.54c-7.237,0.012-14.475,0.011-21.711,0.001
			c-0.334-0.001-0.479,0.095-0.592,0.417c-0.463,1.317-1.471,2.028-2.873,2.042c-1.724,0.016-3.449,0.014-5.173,0.006
			c-1.291-0.006-2.364-0.721-2.782-1.913c-0.153-0.435-0.342-0.559-0.798-0.557c-5.012,0.021-10.023,0.013-15.036,0.013
			c-2.165,0-4.33-0.003-6.495,0.006c-0.205,0.001-0.545-0.142-0.542,0.263c0.006,1-0.123,2.015,0.054,3.001
			c0.229,1.271,1.245,1.941,2.784,1.941C-1.159-35.106,7.322-35.107,15.802-35.107z"/>
		<path fill-rule="evenodd" clip-rule="evenodd" fill="#3C5762" d="M40.921-70.438c-1.128,0.828-2.321,1.545-3.615,2.088
			c-1.75,0.612-3.552,0.882-5.405,0.809c-0.534-0.093-1.117-0.394-1.601-0.083c-0.798,0.515-1.516,1.155-2.267,1.744
			c-0.158,0.103-0.316,0.206-0.474,0.308c-0.586,0.102-0.906-0.144-0.98-0.733c-0.097-0.786-0.262-1.57-0.285-2.359
			c-0.018-0.639-0.302-0.984-0.847-1.197c-1.533-1.141-2.801-2.52-3.756-4.181c-0.551-1.037-0.971-2.126-1.28-3.259
			c-0.106-0.676-0.214-1.352-0.321-2.028c-0.109-2.424,0.271-4.76,1.476-6.888c2.612-4.615,6.599-6.856,11.902-6.75
			c0.08,0.001,0.16-0.006,0.239-0.01c0.678,0.109,1.357,0.218,2.035,0.327c2.018,0.489,3.798,1.444,5.402,2.747
			c0.445,0.447,0.888,0.896,1.334,1.342c1.288,1.61,2.226,3.398,2.714,5.41c0.106,0.674,0.213,1.349,0.319,2.021
			c0.096,2.726-0.493,5.275-1.94,7.611C42.85-72.352,41.9-71.382,40.921-70.438z M33.831-69.099c1.402-0.052,2.72-0.448,3.946-1.093
			c3.638-1.913,5.758-4.889,6.178-9.018c0.146-0.762,0.137-1.524-0.024-2.284c-0.187-2.302-1.082-4.302-2.585-6.042
			c-0.357-0.485-0.776-0.91-1.261-1.269c-1.692-1.473-3.643-2.36-5.882-2.593c-0.762-0.158-1.529-0.127-2.297-0.065
			c-0.101-0.002-0.201-0.012-0.299-0.003c-5.271,0.479-9.642,4.954-10.016,10.251c-0.042,0.75-0.113,1.501,0.065,2.246
			c0.209,2.304,1.107,4.308,2.645,6.031c0.334,0.476,0.747,0.875,1.218,1.212c0.195,0.168,0.363,0.401,0.589,0.495
			c1.352,0.555,1.704,1.656,1.705,2.976c0,0.167-0.068,0.409,0.113,0.493c0.184,0.086,0.309-0.132,0.441-0.238
			c0.928-0.75,1.815-1.609,3.179-1.12C32.304-68.986,33.066-68.942,33.831-69.099z"/>
		<path fill-rule="evenodd" clip-rule="evenodd" fill="#3C5762" d="M40.94-43.181c-0.545-0.126-0.712-0.496-0.712-1.021
			c0.007-7.603,0.008-15.204,0.001-22.807c0-0.539,0.162-0.934,0.698-1.118c0.058,0.009,0.116,0.016,0.173,0.024
			c0.478,0.173,0.641,0.527,0.614,1.013c-0.012,0.212,0.024,0.428,0.04,0.641c-0.065,2.803-0.055,5.608-0.006,8.412
			c-0.064,0.806-0.068,1.61,0.006,2.416c-0.065,2.803-0.055,5.608-0.006,8.412c-0.066,0.806-0.066,1.611,0.006,2.417
			c-0.016,0.212-0.05,0.427-0.042,0.639C41.732-43.603,41.519-43.25,40.94-43.181z"/>
		<path fill-rule="evenodd" clip-rule="evenodd" fill="#FCD1B9" d="M8.205-85.697c0.006,3.427,0.014,6.855,0.018,10.284
			c0.002,2.306,0,4.611,0.001,6.917c0,0.88,0.141,1.028,0.985,1.205c2.37,0.497,4.188,1.753,5.302,3.94
			c0.314,0.613,0.297,0.607-0.402,0.638c-0.65,0.03-1.186-0.094-1.76-0.505c-2.104-1.502-5.04-0.06-5.339,2.578
			C6.9-59.673,6.974-58.723,7.45-57.835c0.795,1.479,2.343,2.227,3.99,1.91c0.177-0.034,0.352-0.078,0.53-0.11
			c0.443-0.083,0.764,0.102,0.894,0.514c0.133,0.42-0.063,0.728-0.458,0.927c-2.522,1.269-5.756,0.039-6.745-2.577
			c-0.16-0.423-0.401-0.711-0.887-0.617c-0.498,0.097-0.589,0.477-0.565,0.917c0.128,2.469,0.715,4.783,2.268,6.78
			c0.388,0.499,0.387,0.961,0.026,1.289C6.08-48.42,5.68-48.532,5.259-48.84c-1.987-1.448-2.825-3.516-3.185-5.846
			c-0.108-0.695-0.131-1.396-0.14-2.098c-0.007-0.604-0.268-0.901-0.739-0.896c-0.47,0.003-0.703,0.297-0.705,0.913
			c-0.011,2.6,0.511,5.054,2.022,7.227c0.214,0.309,0.143,0.394-0.207,0.423c-1.08,0.093-1.925-0.294-2.508-1.209
			c-1.048-1.643-1.498-3.475-1.694-5.39C-2.269-59.354-1.472-62.76,0.1-66.016c0.471-0.977,0.659-2.004,0.656-3.085
			C0.747-74.414,0.75-79.728,0.748-85.04c0-0.221,0.01-0.44,0.015-0.661c1.357-0.003,2.714-0.006,4.069-0.009
			c0.724,0.003,1.447,0.006,2.169,0.008C7.402-85.701,7.804-85.699,8.205-85.697z"/>
		<path fill-rule="evenodd" clip-rule="evenodd" fill="#3ECF8E" d="M21.375-49.151c-2.945,0-5.891,0.001-8.836,0
			c-0.861,0-1.065-0.204-1.067-1.056c-0.001-0.701,0.011-1.403-0.002-2.103c-0.006-0.327,0.082-0.491,0.438-0.576
			c0.561-0.133,1.117-0.316,1.593-0.671c0.42-0.313,0.708-0.724,0.792-1.235c0.059-0.363,0.238-0.429,0.565-0.429
			c5.33,0.008,10.66,0.011,15.989-0.001c0.38,0,0.47,0.124,0.466,0.483c-0.018,1.543-0.005,3.085-0.01,4.628
			c-0.001,0.739-0.226,0.963-0.97,0.964c-2.985,0.002-5.971,0.001-8.957,0.001C21.375-49.146,21.375-49.149,21.375-49.151z
			 M16.788-53.47c0,0.001,0,0.002,0,0.005c-0.419,0-0.839-0.014-1.257,0.004c-0.445,0.017-0.711,0.255-0.72,0.711
			c-0.008,0.459,0.261,0.717,0.699,0.729c0.818,0.023,1.637,0.018,2.455-0.002c0.438-0.011,0.72-0.252,0.722-0.71
			c0.001-0.49-0.291-0.72-0.761-0.733C17.546-53.477,17.167-53.47,16.788-53.47z M19.732-52.678
			c0.064,0.376,0.284,0.664,0.733,0.647c0.44-0.016,0.712-0.299,0.697-0.73c-0.015-0.422-0.274-0.709-0.73-0.694
			C19.983-53.441,19.76-53.171,19.732-52.678z"/>
		<path fill-rule="evenodd" clip-rule="evenodd" fill="#F2F2F2" d="M25.448-69.861c-0.694,0.019-1.387,0.034-2.081,0.051
			c-0.199-0.004-0.398-0.007-0.597-0.011c-0.086-0.597-0.457-0.754-1.021-0.752c-3.825,0.016-7.648,0.002-11.473,0.019
			c-0.448,0.002-0.662-0.082-0.614-0.586c0.047-0.497,0.038-1.002,0.002-1.5c-0.03-0.435,0.137-0.536,0.546-0.533
			c2.943,0.016,5.887,0.002,8.83,0.015c0.558,0.001,0.945-0.146,0.999-0.767c0.551-0.031,1.119,0.167,1.654-0.115
			C22.647-72.381,23.916-71.002,25.448-69.861z"/>
		<path fill-rule="evenodd" clip-rule="evenodd" fill="#3ECF8E" d="M21.382-61.271c2.924-0.001,5.847-0.001,8.771,0
			c0.18,0,0.364-0.016,0.54,0.016c0.467,0.08,0.654,0.452,0.618,1.068c-0.033,0.544-0.431,0.319-0.667,0.319
			c-5.267,0.013-10.532,0.011-15.797,0.008c-0.525,0-1.074-0.075-1.259,0.618c-0.039,0.146-0.187,0.126-0.304,0.127
			c-0.2,0.004-0.4-0.001-0.6-0.003c-1.24-0.013-1.24-0.013-1.21-1.242c0.016-0.68,0.254-0.91,0.96-0.91
			C15.415-61.272,18.399-61.271,21.382-61.271z"/>
		<path fill-rule="evenodd" clip-rule="evenodd" fill="#3C5762" d="M-3.226-45.191c0.763,0.002,1.526,0.005,2.29,0.007
			c2.846-0.002,5.692-0.005,8.538-0.007c0.763,0.002,1.526,0.005,2.29,0.007c2.846-0.002,5.692-0.005,8.538-0.007
			c0.763,0.002,1.526,0.005,2.29,0.007c2.846-0.002,5.692-0.005,8.538-0.007c0.763,0.002,1.525,0.005,2.29,0.007
			c1.603,0,3.207,0,4.81,0c0.079,0.016,0.126-0.006,0.111-0.096c0.001-1.604,0.002-3.208,0.002-4.813
			c-0.002-0.763-0.005-1.525-0.007-2.287c0.002-2.847,0.005-5.693,0.007-8.541c-0.002-0.762-0.005-1.525-0.007-2.287
			c0.011-0.698,0.04-1.396,0.024-2.094c-0.011-0.539,0.201-0.876,0.728-1.003c0.594,0.105,0.734,0.496,0.733,1.049
			c-0.011,6.854-0.006,13.708-0.008,20.562c0,0.771-0.218,0.977-1.015,0.978c-6.574,0.004-13.147,0.006-19.721,0.006
			c-7.495,0-14.989-0.002-22.485-0.006c-0.918,0-1.091-0.173-1.091-1.083c-0.001-8.236-0.001-16.474,0-24.709
			c0-0.887,0.167-1.052,1.049-1.056c0.521-0.001,1.042,0.012,1.563-0.003c0.532-0.016,0.831,0.22,0.905,0.746
			c-0.125,0.542-0.49,0.736-1.015,0.708c-0.238-0.012-0.479,0.012-0.716-0.005c-0.262-0.018-0.347,0.083-0.343,0.342
			c0.02,1.095,0.021,2.189,0.028,3.285c0.002,0.762,0.003,1.524,0.006,2.288c-0.002,2.846-0.003,5.693-0.006,8.539
			c0.002,0.764,0.003,1.525,0.006,2.288c-0.001,2.366-0.002,4.732-0.003,7.097c-0.015,0.091,0.033,0.113,0.11,0.097
			C-4.268-45.186-3.747-45.188-3.226-45.191z"/>
		<path fill-rule="evenodd" clip-rule="evenodd" fill="#CCCCCC" d="M15.802-35.107c-8.48,0-16.96,0.001-25.44-0.001
			c-1.54,0-2.555-0.67-2.784-1.941c-0.177-0.986-0.048-2-0.054-3.001c-0.002-0.405,0.338-0.262,0.542-0.263
			c2.165-0.009,4.33-0.006,6.495-0.006c5.012,0,10.023,0.007,15.036-0.013c0.457-0.001,0.646,0.122,0.798,0.557
			c0.418,1.192,1.491,1.907,2.782,1.913c1.724,0.008,3.449,0.01,5.173-0.006c1.402-0.014,2.41-0.725,2.873-2.042
			c0.113-0.322,0.258-0.418,0.592-0.417c7.237,0.01,14.475,0.011,21.711-0.001c0.422-0.001,0.556,0.12,0.537,0.54
			c-0.033,0.761,0,1.524-0.02,2.285c-0.03,1.253-0.898,2.217-2.143,2.337c-0.676,0.065-1.361,0.055-2.041,0.056
			C31.839-35.106,23.821-35.107,15.802-35.107z"/>
		<path fill-rule="evenodd" clip-rule="evenodd" fill="#3C5762" d="M16.788-53.47c0.379,0,0.759-0.007,1.138,0.002
			c0.47,0.014,0.762,0.244,0.761,0.733c-0.002,0.458-0.284,0.699-0.722,0.71c-0.818,0.021-1.637,0.025-2.455,0.002
			c-0.438-0.011-0.708-0.269-0.699-0.729c0.008-0.456,0.275-0.694,0.72-0.711c0.418-0.018,0.838-0.004,1.257-0.004
			C16.788-53.467,16.788-53.468,16.788-53.47z"/>
		<path fill-rule="evenodd" clip-rule="evenodd" fill="#3C5762" d="M19.732-52.678c0.028-0.493,0.251-0.763,0.699-0.778
			c0.457-0.015,0.716,0.272,0.73,0.694c0.016,0.431-0.257,0.714-0.697,0.73C20.016-52.015,19.796-52.302,19.732-52.678z"/>
		<path fill-rule="evenodd" clip-rule="evenodd" fill="#F1F1F1" d="M-4.789-45.184c-0.078,0.016-0.125-0.006-0.11-0.097
			C-4.863-45.248-4.825-45.215-4.789-45.184z"/>
		<path fill-rule="evenodd" clip-rule="evenodd" fill="#F1F1F1" d="M36.357-45.184c0.038-0.032,0.075-0.064,0.111-0.096
			C36.483-45.19,36.436-45.168,36.357-45.184z"/>
	</g>
	<g>
		<g>
			<text transform="matrix(1 0 0 1 29.0981 -74.603)" fill="#3ECF8E" font-family="'BloggerSans-Medium'" font-size="15.826">S</text>
			<g>
				<line fill="#3ECF8E" x1="32.992" y1="-87.428" x2="32.992" y2="-73.157"/>
				<path fill="#3ECF8E" d="M32.992-72.618c-0.296,0-0.538-0.241-0.538-0.539v-14.271c0-0.298,0.241-0.539,0.538-0.539
					c0.298,0,0.54,0.241,0.54,0.539v14.271C33.532-72.859,33.291-72.618,32.992-72.618z"/>
			</g>
		</g>
	</g>
</g>
</svg>
