<?xml version="1.0" encoding="utf-8"?>
<!-- Generator: Adobe Illustrator 16.0.3, SVG Export Plug-In . SVG Version: 6.00 Build 0)  -->
<!DOCTYPE svg PUBLIC "-//W3C//DTD SVG 1.1//EN" "http://www.w3.org/Graphics/SVG/1.1/DTD/svg11.dtd">
<svg version="1.1" id="Capa_1" xmlns="http://www.w3.org/2000/svg" xmlns:xlink="http://www.w3.org/1999/xlink" x="0px" y="0px"
	 width="60px" height="60px" viewBox="0 0 60 60" enable-background="new 0 0 60 60" xml:space="preserve">
<g>
	<g>
		<path fill="#F2F2F2" d="M-78.188-103.428c0-1.945-1.577-3.523-3.522-3.523h-30.272c-1.945,0-3.523,1.578-3.523,3.523v50.758
			h37.317V-103.428z"/>
		<path fill="#3C5762" d="M-77.445-51.928h-38.802v-51.5c0-2.352,1.913-4.265,4.265-4.265h30.272c2.352,0,4.265,1.913,4.265,4.265
			V-51.928z M-114.763-53.413h35.833v-50.016c0-1.533-1.247-2.78-2.78-2.78h-30.272c-1.533,0-2.781,1.247-2.781,2.78V-53.413z"/>
	</g>
	<path fill="#3C5762" d="M-101.934-101.915h-1.376c-0.41,0-0.742-0.333-0.742-0.742c0-0.411,0.332-0.743,0.742-0.743h1.376
		c0.41,0,0.742,0.333,0.742,0.743C-101.192-102.248-101.524-101.915-101.934-101.915z"/>
	<path fill="#3C5762" d="M-90.134-101.915h-9.412c-0.41,0-0.742-0.333-0.742-0.742c0-0.411,0.332-0.743,0.742-0.743h9.412
		c0.41,0,0.742,0.333,0.742,0.743C-89.392-102.248-89.725-101.915-90.134-101.915z"/>
	<g>
		<path fill="#FFFFFF" d="M-82.738-67.83c0,2.083-1.689,3.773-3.774,3.773h-20.668c-2.084,0-3.774-1.689-3.774-3.773v-26.954
			c0-2.084,1.69-3.773,3.774-3.773h20.668c2.084,0,3.774,1.689,3.774,3.773V-67.83z"/>
		<path fill="#3C5762" d="M-86.512-63.315h-20.668c-2.49,0-4.516-2.025-4.516-4.515v-26.954c0-2.49,2.026-4.516,4.516-4.516h20.668
			c2.49,0,4.516,2.026,4.516,4.516v26.954C-81.996-65.34-84.022-63.315-86.512-63.315z M-107.18-97.815
			c-1.671,0-3.031,1.36-3.031,3.031v26.954c0,1.671,1.36,3.031,3.031,3.031h20.668c1.671,0,3.031-1.359,3.031-3.031v-26.954
			c0-1.671-1.36-3.031-3.031-3.031H-107.18z"/>
	</g>
	<g>
		<path fill="#CCCCCC" d="M-115.505-59.139v7.572c0,1.946,1.578,3.523,3.523,3.523h30.272c1.945,0,3.522-1.577,3.522-3.523v-7.572
			H-115.505z"/>
		<path fill="#3C5762" d="M-81.71-47.301h-30.272c-2.352,0-4.265-1.914-4.265-4.266v-8.314h38.802v8.314
			C-77.445-49.214-79.358-47.301-81.71-47.301z M-114.763-58.396v6.83c0,1.533,1.248,2.781,2.781,2.781h30.272
			c1.533,0,2.78-1.248,2.78-2.781v-6.83H-114.763z"/>
	</g>
	<g>
		<circle fill="#B9F4BC" cx="-96.846" cy="-53.426" r="2.835"/>
		<path fill="#3C5762" d="M-96.846-49.848c-1.973,0-3.578-1.605-3.578-3.579c0-1.973,1.604-3.578,3.578-3.578
			c1.973,0,3.578,1.605,3.578,3.578C-93.268-51.453-94.874-49.848-96.846-49.848z M-96.846-55.52c-1.154,0-2.093,0.939-2.093,2.093
			c0,1.155,0.939,2.093,2.093,2.093c1.154,0,2.093-0.938,2.093-2.093C-94.753-54.58-95.692-55.52-96.846-55.52z"/>
	</g>
	<g>
		<polygon fill="#3ECF8E" points="-84.463,-101.537 -82.997,-98.566 -79.719,-98.09 -82.091,-95.778 -81.531,-92.514 
			-84.463,-94.055 -87.395,-92.514 -86.834,-95.778 -89.207,-98.09 -85.929,-98.566 		"/>
		<path fill="#3ECF8E" d="M-84.463-94.798c0.119,0,0.238,0.029,0.346,0.086l1.601,0.841l-0.306-1.782
			c-0.042-0.241,0.039-0.486,0.214-0.657l1.295-1.262l-1.789-0.26c-0.242-0.035-0.451-0.187-0.559-0.406l-0.801-1.621l-0.8,1.621
			c-0.108,0.219-0.317,0.371-0.559,0.406l-1.79,0.26l1.295,1.262c0.175,0.17,0.255,0.416,0.213,0.657l-0.306,1.782l1.6-0.841
			C-84.7-94.769-84.582-94.798-84.463-94.798z"/>
	</g>
	<ellipse fill="#F2F2F2" cx="-96.78" cy="-69.358" rx="11.892" ry="2.507"/>
	<g>
		<path fill="#3C5762" d="M-91.324-71.03h-10.239c-0.41,0-0.742-0.333-0.742-0.742v-2.384c0-0.069,0.01-0.137,0.028-0.203
			l0.746-2.629l-3.008-9.75l-3.261-0.941c-0.394-0.114-0.621-0.525-0.507-0.918c0.114-0.394,0.525-0.621,0.919-0.508l3.647,1.052
			c0.24,0.069,0.43,0.255,0.503,0.494l3.191,10.344c0.042,0.137,0.043,0.284,0.005,0.421l-0.779,2.741v1.539h9.497
			c0.41,0,0.742,0.332,0.742,0.742C-90.582-71.362-90.914-71.03-91.324-71.03z"/>
		<g>
			<circle fill="#FFFFFF" cx="-91.499" cy="-71.982" r="2.91"/>
			<path fill="#3C5762" d="M-91.499-68.33c-2.014,0-3.653-1.639-3.653-3.653s1.639-3.653,3.653-3.653
				c2.015,0,3.653,1.639,3.653,3.653S-89.484-68.33-91.499-68.33z M-91.499-74.15c-1.195,0-2.168,0.972-2.168,2.167
				c0,1.196,0.973,2.168,2.168,2.168s2.168-0.972,2.168-2.168C-89.331-73.178-90.304-74.15-91.499-74.15z"/>
		</g>
		<g>
			<circle fill="#FFFFFF" cx="-101.755" cy="-71.982" r="2.91"/>
			<path fill="#3C5762" d="M-101.755-68.33c-2.014,0-3.652-1.639-3.652-3.653s1.638-3.653,3.652-3.653s3.653,1.639,3.653,3.653
				S-99.741-68.33-101.755-68.33z M-101.755-74.15c-1.195,0-2.168,0.972-2.168,2.167c0,1.196,0.973,2.168,2.168,2.168
				s2.168-0.972,2.168-2.168C-99.586-73.178-100.56-74.15-101.755-74.15z"/>
		</g>
		<g>
			<path fill="#B9F4BC" d="M-103.191-84.892c0,0,11.51,0,15.409,0c0.668,0,1.683,0.531,1.683,2.074c0,2.396-2.139,6.066-5.926,6.066
				s-8.801,0-8.801,0L-103.191-84.892z"/>
			<path fill="#3C5762" d="M-92.025-76.009h-8.801c-0.33,0-0.621-0.218-0.712-0.536l-2.366-8.141
				c-0.065-0.224-0.021-0.466,0.119-0.653c0.141-0.187,0.36-0.297,0.594-0.297h15.409c0.975,0,2.425,0.75,2.425,2.817
				C-85.357-79.974-87.893-76.009-92.025-76.009z M-100.269-77.494h8.244c3.451,0,5.183-3.413,5.183-5.324
				c0-1.317-0.902-1.332-0.94-1.332h-14.42L-100.269-77.494z"/>
		</g>
	</g>
</g>
<g>
	<g>
		<g>
			<path fill="#B9F4BC" d="M578.636,166.126h-66.54c-7.146,0-12.938,5.792-12.938,12.938v34.589c0,7.146,5.792,12.938,12.938,12.938
				h13.446l1.252,12.322l8.423-12.322h43.418c7.146,0,12.938-5.792,12.938-12.938v-34.589
				C591.573,171.919,585.781,166.126,578.636,166.126z"/>
			<path fill="#3C5762" d="M526.795,240.485c-0.129,0-0.259-0.016-0.387-0.048c-0.64-0.163-1.11-0.709-1.176-1.365l-1.109-10.909
				h-12.026c-8.001,0-14.51-6.509-14.51-14.51v-34.589c0-8.001,6.509-14.51,14.51-14.51h66.54c8.001,0,14.51,6.509,14.51,14.51
				v34.589c0,8.001-6.509,14.51-14.51,14.51h-42.589l-7.954,11.637C527.795,240.235,527.306,240.485,526.795,240.485z
				 M512.096,167.699c-6.267,0-11.366,5.099-11.366,11.366v34.589c0,6.267,5.099,11.366,11.366,11.366h13.446
				c0.806,0,1.482,0.611,1.563,1.414l0.818,8.042l5.996-8.771c0.292-0.429,0.778-0.685,1.298-0.685h43.418
				c6.267,0,11.366-5.099,11.366-11.366v-34.589c0-6.267-5.099-11.366-11.366-11.366H512.096z"/>
		</g>
		<path fill="#3C5762" d="M551.636,210.743h-16.898c-0.869,0-1.572-0.704-1.572-1.572c0-0.868,0.704-1.572,1.572-1.572h16.898
			c0.868,0,1.572,0.704,1.572,1.572C553.208,210.039,552.504,210.743,551.636,210.743z"/>
		<path fill="#3C5762" d="M570.196,197.441h-3.65c-0.868,0-1.572-0.704-1.572-1.572c0-0.868,0.704-1.572,1.572-1.572h3.65
			c0.868,0,1.572,0.704,1.572,1.572C571.768,196.737,571.064,197.441,570.196,197.441z"/>
		<path fill="#3C5762" d="M560.211,197.441h-24.969c-0.868,0-1.572-0.704-1.572-1.572c0-0.868,0.704-1.572,1.572-1.572h24.969
			c0.868,0,1.572,0.704,1.572,1.572C561.783,196.737,561.08,197.441,560.211,197.441z"/>
	</g>
	<g>
		<g>
			<path fill="#F2F2F2" d="M466.458,120.319h66.54c7.145,0,12.938,5.795,12.938,12.94v34.589c0,7.146-5.792,12.938-12.938,12.938
				h-13.446l-1.253,12.322l-8.423-12.322h-43.417c-7.146,0-12.938-5.792-12.938-12.938v-34.589
				C453.521,126.114,459.313,120.319,466.458,120.319z"/>
			<path fill="#3C5762" d="M518.299,194.68c-0.511,0-1-0.25-1.298-0.685l-7.955-11.637h-42.588c-8.001,0-14.51-6.509-14.51-14.51
				v-34.589c0-8.002,6.509-14.512,14.51-14.512h66.54c8.001,0,14.51,6.51,14.51,14.512v34.589c0,8.001-6.509,14.51-14.51,14.51
				h-12.026l-1.109,10.908c-0.066,0.657-0.536,1.203-1.176,1.365C518.558,194.665,518.428,194.68,518.299,194.68z M466.458,121.891
				c-6.267,0-11.366,5.1-11.366,11.368v34.589c0,6.267,5.099,11.366,11.366,11.366h43.417c0.519,0,1.005,0.256,1.298,0.685
				l5.997,8.773l0.818-8.044c0.081-0.804,0.757-1.414,1.563-1.414h13.446c6.267,0,11.366-5.099,11.366-11.366v-34.589
				c0-6.268-5.099-11.368-11.366-11.368H466.458z"/>
		</g>
		<path fill="#3C5762" d="M533.922,153.498h-41.719c-0.868,0-1.572-0.704-1.572-1.572c0-0.868,0.704-1.572,1.572-1.572h41.719
			c0.869,0,1.572,0.704,1.572,1.572C535.494,152.794,534.791,153.498,533.922,153.498z"/>
		<path fill="#3C5762" d="M482.213,153.498h-16.898c-0.868,0-1.572-0.704-1.572-1.572c0-0.868,0.704-1.572,1.572-1.572h16.898
			c0.868,0,1.572,0.704,1.572,1.572C483.785,152.794,483.081,153.498,482.213,153.498z"/>
		<path fill="#3C5762" d="M500.773,140.192h-3.65c-0.869,0-1.572-0.704-1.572-1.572s0.704-1.572,1.572-1.572h3.65
			c0.868,0,1.572,0.704,1.572,1.572S501.642,140.192,500.773,140.192z"/>
		<path fill="#3C5762" d="M490.788,140.192h-24.97c-0.868,0-1.572-0.704-1.572-1.572s0.704-1.572,1.572-1.572h24.97
			c0.868,0,1.572,0.704,1.572,1.572S491.656,140.192,490.788,140.192z"/>
	</g>
</g>
<g>
	<path fill-rule="evenodd" clip-rule="evenodd" fill="#3C5762" d="M284.038,232.53c0-11.314,0-22.628,0-33.943
		c1.328-3.177,3.862-4.037,7.069-3.832c2.016,0.13,4.048,0.017,6.072,0.013c1.465,0.29,2.876,0.738,3.722,2.068
		c0.464,0.73,0.769,0.522,1.273,0.104c1.886-1.563,3.818-3.07,5.694-4.644c2.918-2.446,5.929-4.703,9.416-6.348
		c4.964-2.341,9.817-4.917,14.723-7.385c0.435-0.219,0.885-0.421,1.347-0.573c2.923-0.96,5.529-0.376,7.658,1.829
		c2.135,2.211,2.609,4.841,1.52,7.72c-0.717,1.896-2.116,3.157-3.897,4.047c-1.382,0.691-2.753,1.405-4.129,2.109
		c0.373,0.204,0.667,0.229,0.962,0.229c6.899,0.002,13.796,0,20.693,0.004c1.171,0.001,2.33,0.087,3.43,0.552
		c3.327,1.404,4.958,5.154,3.63,8.52c-0.335,0.849-0.157,1.02,0.691,0.985c1.128-0.048,2.266-0.05,3.39,0.039
		c2.632,0.21,4.545,1.58,5.595,3.965c1.046,2.38,0.79,4.716-0.834,6.807c-1.471,1.893-3.481,2.663-5.98,2.607
		c0.288,0.673,0.533,1.248,0.779,1.822c0.01,0.375,0.018,0.751,0.029,1.126c0.091,3.341-1.958,6.084-5.211,6.855
		c-0.882,0.208-1.821,0.183-2.87,0.276c0.766,1.519,1.035,3.016,0.69,4.574c-0.744,3.362-3.416,5.369-7.217,5.372
		c-12.662,0.012-25.323,0.002-37.984,0.012c-0.77,0-1.488-0.16-2.198-0.43c-3.195-1.211-6.398-2.4-9.581-3.644
		c-0.607-0.237-0.866-0.181-1.213,0.414c-0.929,1.593-2.336,2.552-4.227,2.581c-2.675,0.039-5.351,0.037-8.026,0.008
		c-1.734-0.018-3.119-0.789-4.113-2.204C284.583,233.66,284.335,233.078,284.038,232.53z M333.57,234.051c0-0.004,0-0.006,0-0.01
		c6.185,0,12.37,0.002,18.554-0.003c0.414-0.001,0.832-0.013,1.239-0.075c1.716-0.264,2.855-1.561,2.863-3.232
		c0.008-1.676-1.118-2.992-2.835-3.275c-0.442-0.073-0.9-0.074-1.352-0.077c-2.827-0.013-5.657-0.001-8.484-0.032
		c-0.957-0.01-1.555-0.531-1.661-1.504c-0.102-0.935,0.466-1.618,1.481-1.801c0.331-0.06,0.675-0.052,1.013-0.053
		c3.017-0.001,6.034,0.003,9.051,0.003c2.262,0,4.526,0.039,6.787-0.021c2.106-0.056,3.496-1.732,3.236-3.774
		c-0.211-1.662-1.625-2.816-3.538-2.82c-5.317-0.014-10.635,0.001-15.952-0.01c-1.341-0.003-2.104-0.646-2.101-1.692
		c0.003-1.044,0.774-1.67,2.11-1.686c1.131-0.014,2.263-0.003,3.395-0.003c6.373,0,12.746,0.007,19.12-0.005
		c2.208-0.004,3.644-1.431,3.562-3.481c-0.074-1.85-1.494-3.116-3.581-3.12c-7.278-0.012-14.557-0.004-21.834-0.007
		c-0.525,0-1.055,0.038-1.569-0.131c-0.832-0.271-1.233-0.855-1.18-1.704c0.055-0.857,0.55-1.386,1.406-1.513
		c0.37-0.055,0.752-0.034,1.129-0.034c4.11-0.002,8.221,0.008,12.332-0.006c1.43-0.005,2.576-0.579,3.214-1.906
		c0.548-1.14,0.445-2.275-0.28-3.319c-0.818-1.18-2.029-1.442-3.377-1.441c-9.428,0.015-18.856,0.014-28.284,0.016
		c-1.905,0-2.57-0.309-2.8-1.285c-0.241-1.025,0.189-1.582,1.868-2.432c3.39-1.718,6.784-3.427,10.166-5.161
		c1.779-0.912,2.661-2.521,2.372-4.208c-0.461-2.685-3.173-4.098-5.704-2.841c-6.3,3.13-12.563,6.335-18.838,9.516
		c-0.233,0.118-0.451,0.274-0.654,0.439c-3.956,3.202-7.903,6.414-11.87,9.602c-0.46,0.37-0.625,0.759-0.623,1.341
		c0.014,8.787,0.014,17.574-0.014,26.36c-0.002,0.689,0.236,0.972,0.857,1.2c3.352,1.234,6.689,2.507,10.024,3.787
		c0.715,0.274,1.428,0.41,2.198,0.408C321.201,234.043,327.385,234.051,333.57,234.051z M298.52,215.575
		c0-5.051,0.004-10.103-0.001-15.155c-0.002-1.631-0.512-2.156-2.164-2.172c-2.262-0.022-4.524-0.026-6.786,0.003
		c-1.529,0.019-2.098,0.617-2.099,2.158c-0.006,10.141-0.007,20.282,0.001,30.423c0.001,1.521,0.605,2.104,2.141,2.113
		c2.224,0.01,4.449,0.008,6.673,0c1.708-0.004,2.231-0.521,2.233-2.215C298.523,225.679,298.52,220.627,298.52,215.575z"/>
	<path fill-rule="evenodd" clip-rule="evenodd" fill="#FEFEFE" d="M297.179,194.768c-2.024,0.004-4.056,0.117-6.072-0.013
		c-3.207-0.205-5.741,0.655-7.069,3.832c0-24.048,0.006-48.096-0.025-72.144c-0.001-0.856,0.225-0.966,1.001-0.966
		c37.957,0.021,75.914,0.022,113.871-0.003c0.859,0,1.058,0.205,1.035,1.045c-0.063,2.373-0.021,4.748-0.021,7.123
		c-1.009-2.737-2.857-4.24-5.886-4.238c-30.793,0.017-61.586,0.012-92.379,0.014c-0.792,0-1.581,0.038-2.345,0.271
		c-2.432,0.742-3.758,2.708-3.76,5.633c-0.007,10.101-0.001,20.202-0.003,30.303c-0.001,7.425-0.007,14.85-0.007,22.274
		c0,1.613,0.274,1.994,1.659,2.368C297.177,191.766,297.178,193.267,297.179,194.768z"/>
	<path fill-rule="evenodd" clip-rule="evenodd" fill="#3C5762" d="M297.177,190.266c-1.385-0.375-1.66-0.755-1.66-2.368
		c0-7.424,0.006-14.849,0.007-22.274c0.001-10.101-0.004-20.202,0.003-30.303c0.002-2.925,1.328-4.891,3.76-5.633
		c0.764-0.233,1.553-0.271,2.345-0.271c30.792-0.001,61.586,0.003,92.379-0.014c3.029-0.002,4.877,1.501,5.886,4.238
		c0,27.758,0,55.516,0,83.274c-0.062,0.036-0.161,0.059-0.178,0.109c-1.01,2.912-3.172,3.955-6.112,3.936
		c-6.654-0.044-13.308-0.012-19.962-0.016c-1.598-0.001-1.945-0.248-2.495-1.716c0.517-1.486,0.792-1.696,2.376-1.698
		c6.75-0.006,13.499,0,20.247-0.003c2.083-0.001,2.712-0.627,2.713-2.689c0.001-26.43,0.001-52.86,0-79.29
		c0-2.09-0.601-2.699-2.685-2.702c-10.595-0.014-21.188-0.012-31.784-0.052c-0.878-0.003-1.142,0.213-1.137,1.12
		c0.038,7.164,0.026,14.327,0.019,21.491c-0.004,3.911-2.105,6.015-6,6.02c-4.751,0.006-9.501,0.006-14.252,0
		c-4.08-0.005-6.139-2.056-6.14-6.104c-0.002-7.164-0.003-14.327,0.004-21.491c0-0.598,0.057-1.037-0.845-1.034
		c-10.745,0.034-21.491,0.014-32.236,0.021c-1.868,0.001-2.499,0.656-2.5,2.534c-0.003,9.312,0.002,18.625,0.002,27.938
		c0.001,8.182,0.004,16.363-0.002,24.544C298.933,189.465,298.579,189.926,297.177,190.266z M357.45,144.806
		c0-3.62-0.023-7.24,0.018-10.859c0.009-0.809-0.153-1.106-1.043-1.1c-5.806,0.042-11.614,0.037-17.42,0.004
		c-0.814-0.004-1.081,0.165-1.077,1.045c0.042,7.164,0.021,14.328,0.024,21.492c0.001,1.986,0.58,2.58,2.545,2.583
		c4.789,0.007,9.577,0.005,14.365,0c2.03-0.003,2.584-0.572,2.587-2.646C357.454,151.82,357.45,148.313,357.45,144.806z"/>
	<path fill-rule="evenodd" clip-rule="evenodd" fill="#F2F2F2" d="M371.151,219.23c-1.43-0.001-2.861-0.003-4.292-0.004
		c-0.246-0.574-0.491-1.148-0.779-1.822c2.499,0.056,4.509-0.715,5.98-2.607c1.624-2.091,1.88-4.427,0.834-6.807
		c-1.05-2.385-2.962-3.755-5.595-3.965c-1.125-0.089-2.262-0.087-3.39-0.039c-0.848,0.035-1.026-0.136-0.691-0.985
		c1.327-3.366-0.303-7.116-3.63-8.52c-1.1-0.464-2.259-0.551-3.43-0.552c-6.897-0.004-13.794-0.002-20.693-0.004
		c-0.295,0-0.589-0.025-0.962-0.229c1.376-0.704,2.747-1.418,4.129-2.109c1.781-0.89,3.18-2.151,3.897-4.047
		c1.089-2.879,0.615-5.509-1.52-7.72c-2.129-2.206-4.734-2.789-7.658-1.829c-0.462,0.152-0.913,0.354-1.347,0.573
		c-4.905,2.468-9.758,5.044-14.723,7.385c-3.486,1.645-6.498,3.901-9.416,6.348c-1.875,1.573-3.808,3.08-5.694,4.644
		c-0.504,0.418-0.809,0.626-1.273-0.104c-0.846-1.331-2.257-1.779-3.722-2.068c0-1.501-0.001-3.001-0.002-4.501
		c1.402-0.34,1.756-0.801,1.757-2.43c0.007-8.181,0.003-16.363,0.002-24.544c0-9.313-0.005-18.625-0.002-27.938
		c0.001-1.878,0.632-2.533,2.5-2.534c10.745-0.008,21.491,0.012,32.236-0.021c0.901-0.003,0.845,0.436,0.845,1.034
		c-0.007,7.164-0.006,14.327-0.004,21.491c0.001,4.048,2.06,6.099,6.14,6.104c4.75,0.005,9.5,0.005,14.252,0
		c3.895-0.005,5.996-2.109,6-6.02c0.007-7.164,0.019-14.327-0.019-21.491c-0.005-0.906,0.259-1.123,1.137-1.12
		c10.595,0.04,21.189,0.038,31.784,0.052c2.084,0.002,2.685,0.611,2.685,2.702c0.001,26.43,0.001,52.86,0,79.29
		c-0.001,2.062-0.63,2.688-2.713,2.689c-6.749,0.003-13.498-0.002-20.247,0.003C371.943,217.534,371.668,217.745,371.151,219.23z"/>
	<path fill-rule="evenodd" clip-rule="evenodd" fill="#FCD1B9" d="M333.57,234.051c-6.185,0-12.369-0.008-18.554,0.01
		c-0.77,0.002-1.483-0.134-2.198-0.408c-3.335-1.28-6.672-2.553-10.024-3.787c-0.621-0.229-0.859-0.511-0.857-1.2
		c0.028-8.786,0.028-17.573,0.014-26.36c-0.001-0.582,0.163-0.971,0.623-1.341c3.967-3.188,7.914-6.4,11.87-9.602
		c0.203-0.165,0.421-0.321,0.654-0.439c6.275-3.181,12.538-6.386,18.838-9.516c2.53-1.257,5.243,0.156,5.704,2.841
		c0.289,1.687-0.593,3.295-2.372,4.208c-3.381,1.734-6.776,3.443-10.166,5.161c-1.678,0.85-2.108,1.407-1.868,2.432
		c0.23,0.976,0.896,1.285,2.8,1.285c9.428-0.002,18.856-0.001,28.284-0.016c1.348-0.001,2.559,0.261,3.377,1.441
		c0.725,1.044,0.829,2.179,0.28,3.319c-0.638,1.327-1.784,1.901-3.214,1.906c-4.111,0.014-8.221,0.003-12.332,0.006
		c-0.376,0-0.759-0.021-1.129,0.034c-0.856,0.127-1.352,0.656-1.406,1.513c-0.054,0.848,0.348,1.433,1.18,1.704
		c0.515,0.169,1.044,0.131,1.569,0.131c7.278,0.002,14.557-0.005,21.834,0.007c2.087,0.003,3.507,1.27,3.581,3.12
		c0.082,2.05-1.354,3.478-3.562,3.481c-6.374,0.012-12.747,0.005-19.12,0.005c-1.131,0-2.263-0.011-3.395,0.003
		c-1.336,0.016-2.106,0.641-2.11,1.686c-0.003,1.046,0.759,1.688,2.101,1.692c5.316,0.012,10.634-0.004,15.952,0.01
		c1.913,0.004,3.326,1.159,3.538,2.82c0.259,2.042-1.13,3.718-3.236,3.774c-2.261,0.06-4.525,0.021-6.787,0.021
		c-3.018,0-6.035-0.004-9.051-0.003c-0.338,0-0.683-0.007-1.013,0.053c-1.016,0.183-1.583,0.866-1.481,1.801
		c0.106,0.973,0.704,1.494,1.661,1.504c2.828,0.03,5.657,0.019,8.484,0.032c0.451,0.002,0.909,0.003,1.352,0.077
		c1.717,0.283,2.843,1.6,2.835,3.275c-0.008,1.672-1.147,2.969-2.863,3.232c-0.408,0.063-0.826,0.074-1.239,0.075
		c-6.184,0.005-12.369,0.003-18.554,0.003C333.57,234.045,333.57,234.047,333.57,234.051z"/>
	<path fill-rule="evenodd" clip-rule="evenodd" fill="#3ECF8E" d="M298.52,215.575c0,5.052,0.003,10.104-0.001,15.155
		c-0.001,1.693-0.525,2.211-2.233,2.215c-2.224,0.008-4.449,0.01-6.673,0c-1.535-0.009-2.14-0.593-2.141-2.113
		c-0.008-10.141-0.007-20.282-0.001-30.423c0.001-1.541,0.569-2.139,2.099-2.158c2.261-0.029,4.524-0.025,6.786-0.003
		c1.651,0.016,2.162,0.541,2.164,2.172C298.524,205.472,298.52,210.524,298.52,215.575z"/>
	<path fill-rule="evenodd" clip-rule="evenodd" fill="#3ECF8E" d="M357.45,144.806c0,3.507,0.004,7.014-0.001,10.52
		c-0.002,2.074-0.557,2.643-2.587,2.646c-4.788,0.005-9.577,0.006-14.365,0c-1.965-0.003-2.544-0.597-2.545-2.583
		c-0.002-7.164,0.018-14.329-0.024-21.492c-0.004-0.881,0.262-1.05,1.077-1.045c5.807,0.033,11.614,0.039,17.42-0.004
		c0.89-0.006,1.053,0.291,1.043,1.1C357.427,137.566,357.45,141.186,357.45,144.806z"/>
</g>
<g>
	<g>
		<path fill-rule="evenodd" clip-rule="evenodd" fill="#3C5762" d="M4.032,46.927c0.062-0.802,0.071-1.605-0.007-2.406
			c0.012-2.072,0.029-4.142,0.036-6.213c0.002-0.736-0.02-1.472-0.029-2.208c0.062-0.802,0.071-1.604-0.007-2.406
			c0.012-2.07,0.029-4.141,0.036-6.213c0.002-0.736-0.02-1.472-0.029-2.208c0.062-0.802,0.071-1.604-0.007-2.406
			c0.015-0.479,0.021-0.957,0.046-1.436c0.078-1.439,1.03-2.358,2.472-2.39c0.479-0.011,0.957-0.022,1.436-0.032
			c0.763,0.002,1.525,0.005,2.288,0.007c0.953,0.007,1.907,0.002,2.858,0.03c0.327,0.008,0.401-0.113,0.393-0.413
			c-0.022-0.914-0.017-1.827-0.023-2.741c-0.002-0.803-0.004-1.606-0.006-2.41c0.009-1.754,0.023-3.509,0.02-5.263
			c-0.001-0.472,0.119-0.855,0.629-0.932c0.476-0.071,0.731,0.224,0.838,0.665c-0.005,0.221-0.015,0.44-0.015,0.661
			c0.001,5.313-0.001,10.626,0.008,15.939c0.002,1.081-0.185,2.108-0.656,3.085c-1.572,3.256-2.369,6.662-1.997,10.299
			c0.196,1.916,0.646,3.747,1.694,5.39c0.583,0.915,1.429,1.302,2.508,1.209c0.35-0.029,0.421-0.114,0.207-0.423
			c-1.511-2.173-2.033-4.627-2.022-7.227c0.002-0.616,0.235-0.91,0.705-0.913c0.471-0.005,0.731,0.293,0.739,0.896
			c0.009,0.703,0.032,1.403,0.14,2.098c0.36,2.33,1.198,4.398,3.185,5.846c0.421,0.308,0.821,0.42,1.243,0.038
			c0.361-0.328,0.362-0.79-0.026-1.289c-1.553-1.997-2.139-4.311-2.268-6.78c-0.023-0.44,0.068-0.82,0.565-0.917
			c0.486-0.095,0.727,0.194,0.887,0.617c0.988,2.616,4.222,3.845,6.745,2.577c0.395-0.199,0.591-0.506,0.458-0.927
			c-0.13-0.412-0.451-0.597-0.894-0.514c-0.178,0.033-0.353,0.076-0.53,0.11c-1.646,0.317-3.195-0.43-3.99-1.91
			c-0.476-0.888-0.55-1.838-0.441-2.806c0.299-2.638,3.235-4.081,5.339-2.578c0.574,0.411,1.11,0.535,1.76,0.505
			c0.699-0.031,0.716-0.025,0.402-0.638c-1.114-2.187-2.932-3.443-5.302-3.94c-0.844-0.177-0.985-0.325-0.985-1.205
			c-0.001-2.305,0.001-4.611-0.001-6.917c-0.004-3.429-0.012-6.856-0.018-10.284c0.146-0.438,0.385-0.771,0.909-0.658
			c0.527,0.114,0.566,0.534,0.566,0.981c0,1.739,0.013,3.476,0.022,5.215c0.002,0.799,0.005,1.598,0.007,2.397
			c-0.011,0.938-0.016,1.875-0.036,2.813c-0.006,0.272,0.116,0.338,0.36,0.335c1.797-0.015,3.593-0.023,5.39-0.033
			c0.763,0.002,1.525,0.005,2.288,0.007c0.477,0.008,0.955,0.021,1.432,0.023c0.477,0.001,0.806,0.189,0.896,0.688
			c-0.053,0.622-0.441,0.769-0.999,0.767c-2.943-0.012-5.887,0.001-8.83-0.015c-0.41-0.002-0.577,0.098-0.546,0.533
			c0.035,0.498,0.044,1.003-0.002,1.5c-0.047,0.505,0.166,0.589,0.614,0.586c3.825-0.016,7.648-0.002,11.473-0.019
			c0.565-0.002,0.936,0.155,1.021,0.752c-0.131,0.521-0.474,0.729-1,0.712c-0.471-0.014-0.944,0.01-1.415,0.017
			c-2.847,0.001-5.693,0.004-8.541,0.005c-0.6-0.008-1.201-0.021-1.8-0.023c-0.127,0-0.302-0.051-0.33,0.157
			c-0.025,0.187,0.062,0.285,0.252,0.337c0.424,0.116,0.839,0.257,1.26,0.388c1.858,0.837,3.383,2.061,4.433,3.833
			c0.216,0.509,0.435,1.018,0.649,1.528c0.071,0.172,0.205,0.159,0.348,0.129c2.846-0.001,5.693-0.003,8.539-0.006
			c0.762,0.001,1.525,0.005,2.289,0.006c0.997,0.007,1.994,0.014,2.993,0.021c1.4,0.011,2.284,0.88,2.307,2.267
			c0.003,0.179,0.012,0.357,0.018,0.538c0.001,0.787,0.004,1.575,0.006,2.362c-0.009,2.342-0.025,4.685-0.021,7.027
			c0.001,0.603-0.018,1.191-0.258,1.753c-0.244,0.31-0.519,0.587-0.833,0.823c-0.461,0.198-0.95,0.254-1.443,0.287
			c-2.446-0.002-4.893-0.005-7.338-0.007c-0.763-0.001-1.528-0.004-2.291-0.005c-2.846,0.001-5.691,0.001-8.537,0.003
			c-0.591-0.102-1.1-0.367-1.541-0.768c-0.387-0.543-0.537-1.146-0.51-1.811c0.025-0.641-0.018-1.285,0.015-1.924
			c0.019-0.367-0.107-0.489-0.459-0.509c-0.852-0.048-1.639-0.343-2.407-0.692c-0.312-0.213-0.622-0.425-0.933-0.637
			c0.06,0.388,0.061,0.738,0.276,1.016c0.251,0.817,0.747,1.491,1.242,2.173c1.059,1.456,0.271,3.391-1.492,3.689
			c-0.794,0.133-1.442-0.202-2.041-0.677c-0.164-0.129-0.295-0.325-0.572-0.184c-0.761,0.389-1.583,0.372-2.406,0.322
			c-0.542-0.152-1.057-0.376-1.548-0.652c-0.181-0.144-0.36-0.29-0.542-0.435c-0.343-0.459-0.682-0.922-0.961-1.429
			c-0.628-1.144-0.993-2.377-1.296-3.635c-0.092-0.687-0.184-1.373-0.277-2.06c-0.102-1.377-0.093-2.752,0.109-4.123
			c0.329-2.204,0.976-4.313,1.89-6.341c0.572-0.923,0.76-1.933,0.669-3.003c-0.001-0.154-0.002-0.309-0.005-0.463
			c0.005-0.943-0.007-1.885,0.021-2.826c0.012-0.383-0.086-0.522-0.494-0.519c-2.023,0.015-4.048-0.001-6.072-0.003
			c-1.155-0.001-1.384,0.223-1.385,1.352c-0.004,6.756-0.007,13.51-0.01,20.266c-0.001,2.426-0.006,4.85,0.003,7.275
			c0.001,0.534-0.117,0.956-0.712,1.082c-0.551-0.069-0.768-0.403-0.768-0.938C4.061,48.665,4.042,47.796,4.032,46.927z
			 M24.331,34.916c-0.207-0.474-0.048-0.979-0.133-1.462c0.01-0.797,0.24-1.515,0.874-2.124c-1.136-0.056-1.881,0.369-2.245,1.208
			c-0.436,1.007-0.194,2.394,0.544,3.111c0.034,0.041,0.068,0.081,0.103,0.121c0.276,0.359,0.684,0.46,1.093,0.554
			c0.25,0.057,0.371-0.003,0.422-0.313C25.089,35.42,24.771,35.146,24.331,34.916z M35.585,44.502c0,0.002,0,0.005,0,0.007
			c2.986,0,5.972,0.001,8.957-0.001c0.745-0.001,0.969-0.225,0.97-0.964c0.005-1.542-0.008-3.084,0.01-4.628
			c0.003-0.36-0.086-0.483-0.466-0.483c-5.33,0.012-10.66,0.009-15.989,0.001c-0.327,0-0.506,0.065-0.565,0.429
			c-0.084,0.511-0.371,0.922-0.792,1.235c-0.476,0.355-1.032,0.538-1.593,0.671c-0.355,0.085-0.444,0.249-0.438,0.576
			c0.013,0.7,0.001,1.402,0.002,2.103c0.002,0.852,0.206,1.056,1.067,1.056C29.695,44.503,32.64,44.502,35.585,44.502z
			 M35.592,32.383c-2.982,0-5.967-0.001-8.95,0.001c-0.706,0-0.945,0.23-0.96,0.91c-0.029,1.229-0.029,1.229,1.21,1.242
			c0.2,0.002,0.399,0.007,0.6,0.003c0.117-0.001,0.265,0.019,0.304-0.127c0.185-0.693,0.734-0.618,1.259-0.618
			c5.265,0.002,10.531,0.005,15.797-0.008c0.236,0,0.635,0.225,0.667-0.319c0.036-0.617-0.15-0.988-0.618-1.068
			c-0.176-0.032-0.36-0.016-0.54-0.016C41.439,32.381,38.516,32.381,35.592,32.383z"/>
		<path fill-rule="evenodd" clip-rule="evenodd" fill="#F2F2F2" d="M4.829,50.471c0.595-0.126,0.714-0.548,0.712-1.082
			c-0.01-2.425-0.005-4.85-0.003-7.275c0.002-6.755,0.006-13.51,0.01-20.266c0.001-1.129,0.23-1.353,1.385-1.352
			c2.024,0.002,4.049,0.018,6.072,0.003c0.408-0.003,0.506,0.136,0.494,0.519c-0.028,0.94-0.016,1.883-0.021,2.826
			c-0.23,0.002-0.461,0.007-0.693,0.011c-0.476-0.007-0.954-0.015-1.43-0.022c-0.074-0.526-0.373-0.762-0.905-0.746
			c-0.521,0.016-1.042,0.002-1.563,0.003c-0.882,0.004-1.049,0.168-1.049,1.056c-0.001,8.236-0.001,16.473,0,24.709
			c0,0.91,0.173,1.083,1.091,1.083c7.496,0.004,14.991,0.006,22.485,0.006c6.574,0,13.146-0.002,19.721-0.006
			c0.797-0.001,1.015-0.206,1.015-0.978c0.002-6.854-0.002-13.708,0.008-20.562c0.001-0.554-0.139-0.944-0.733-1.049
			c-0.01-0.412-0.02-0.821-0.029-1.232c0.23-0.244,0.072-0.544,0.119-0.814c1.294-0.543,2.487-1.26,3.615-2.088
			c0.002,0.77,0.005,1.54,0.006,2.311c-0.536,0.184-0.698,0.579-0.698,1.118c0.007,7.603,0.006,15.204-0.001,22.807
			c0,0.525,0.167,0.895,0.712,1.021c-0.001,0.46-0.003,0.922-0.006,1.384c-0.239,0.011-0.479,0.034-0.717,0.034
			c-6.391,0.002-12.783,0.001-19.174,0.002c-0.797,0-1.014,0.171-1.122,0.858c-0.187,1.198-0.623,1.597-1.82,1.596
			c-1.642-0.002-3.284-0.023-4.926-0.05c-0.933-0.015-1.392-0.446-1.509-1.367c-0.111-0.885-0.286-1.037-1.2-1.037
			c-4.748-0.001-9.496,0.002-14.245-0.002c-1.862-0.002-3.725-0.023-5.586-0.034C4.84,51.395,4.835,50.933,4.829,50.471z"/>
		<path fill-rule="evenodd" clip-rule="evenodd" fill="#3C5762" d="M4.845,51.856c1.862,0.011,3.724,0.031,5.586,0.034
			c4.749,0.005,9.497,0.001,14.245,0.002c0.914,0,1.088,0.152,1.2,1.037c0.117,0.921,0.577,1.352,1.509,1.367
			c1.642,0.027,3.285,0.047,4.926,0.05c1.197,0.001,1.633-0.397,1.82-1.596c0.108-0.687,0.325-0.858,1.122-0.858
			c6.391-0.001,12.783,0,19.174-0.002c0.239,0,0.479-0.023,0.717-0.034c1.161,0.015,2.32,0.031,3.481,0.043
			c0.879,0.009,1.082,0.211,1.083,1.107c0.002,1.041,0.016,2.083-0.002,3.125c-0.036,2.097-1.545,3.695-3.628,3.815
			c-0.918,0.053-1.842,0.028-2.763,0.028c-9.953,0.001-19.906,0-29.858,0.001c-0.219,0-0.44,0.016-0.659,0.024
			c-0.616-0.091-1.23-0.087-1.845-0.003c-3.839-0.007-7.68-0.016-11.52-0.022c-1.561-0.002-3.121-0.017-4.682,0.005
			c-0.934,0.013-1.831-0.101-2.664-0.55c-0.351-0.32-0.703-0.638-1.055-0.959c-0.592-0.899-0.806-1.886-0.758-2.958
			c0.039-0.898,0.001-1.799,0.01-2.697c0.006-0.652,0.253-0.9,0.91-0.913C2.411,51.879,3.628,51.871,4.845,51.856z M30.012,58.546
			c8.019,0,16.037,0.001,24.058-0.002c0.68-0.001,1.364,0.009,2.041-0.056c1.245-0.12,2.113-1.084,2.143-2.337
			c0.02-0.761-0.013-1.524,0.02-2.285c0.019-0.42-0.114-0.542-0.537-0.54c-7.237,0.012-14.475,0.011-21.711,0.001
			c-0.334-0.001-0.479,0.095-0.592,0.417c-0.463,1.317-1.471,2.028-2.873,2.042c-1.724,0.016-3.449,0.014-5.173,0.006
			c-1.291-0.006-2.364-0.721-2.782-1.913c-0.153-0.435-0.342-0.559-0.798-0.557c-5.012,0.021-10.023,0.013-15.036,0.013
			c-2.165,0-4.33-0.003-6.495,0.006c-0.205,0.001-0.545-0.142-0.542,0.263c0.006,1-0.123,2.015,0.054,3.001
			c0.229,1.271,1.245,1.941,2.784,1.941C13.052,58.547,21.532,58.546,30.012,58.546z"/>
		<path fill-rule="evenodd" clip-rule="evenodd" fill="#3C5762" d="M55.131,23.216c-1.128,0.828-2.321,1.545-3.615,2.088
			c-1.75,0.612-3.552,0.882-5.405,0.809c-0.534-0.093-1.117-0.394-1.601-0.083c-0.798,0.515-1.516,1.155-2.267,1.744
			c-0.158,0.103-0.316,0.206-0.474,0.308c-0.586,0.102-0.906-0.144-0.98-0.733c-0.097-0.786-0.262-1.57-0.285-2.359
			c-0.018-0.639-0.302-0.984-0.847-1.197c-1.533-1.141-2.801-2.52-3.756-4.181c-0.551-1.037-0.971-2.126-1.28-3.259
			c-0.106-0.676-0.214-1.352-0.321-2.028c-0.109-2.424,0.271-4.76,1.476-6.888c2.612-4.615,6.599-6.856,11.902-6.75
			c0.08,0.001,0.16-0.006,0.239-0.01c0.678,0.109,1.357,0.218,2.035,0.327c2.018,0.489,3.798,1.444,5.402,2.747
			c0.445,0.447,0.888,0.896,1.334,1.342c1.288,1.61,2.226,3.398,2.714,5.41c0.106,0.674,0.213,1.349,0.319,2.021
			c0.096,2.726-0.493,5.275-1.94,7.611C57.06,21.302,56.11,22.271,55.131,23.216z M48.041,24.555
			c1.402-0.052,2.72-0.448,3.946-1.093c3.638-1.913,5.758-4.889,6.178-9.018c0.146-0.762,0.137-1.524-0.024-2.284
			c-0.187-2.302-1.082-4.302-2.585-6.042c-0.357-0.485-0.776-0.91-1.261-1.269c-1.692-1.473-3.643-2.36-5.882-2.593
			C47.65,2.1,46.883,2.13,46.115,2.192c-0.101-0.002-0.201-0.012-0.299-0.003C40.544,2.668,36.174,7.143,35.8,12.439
			c-0.042,0.75-0.113,1.501,0.065,2.246c0.209,2.304,1.107,4.308,2.645,6.031c0.334,0.476,0.747,0.875,1.218,1.212
			c0.195,0.168,0.363,0.401,0.589,0.495c1.352,0.555,1.704,1.656,1.705,2.976c0,0.167-0.068,0.409,0.113,0.493
			c0.184,0.086,0.309-0.132,0.441-0.238c0.928-0.75,1.815-1.609,3.179-1.12C46.515,24.667,47.277,24.711,48.041,24.555z"/>
		<path fill-rule="evenodd" clip-rule="evenodd" fill="#3C5762" d="M55.15,50.472c-0.545-0.126-0.712-0.496-0.712-1.021
			c0.007-7.603,0.008-15.204,0.001-22.807c0-0.539,0.162-0.934,0.698-1.118c0.058,0.009,0.116,0.016,0.173,0.024
			c0.478,0.173,0.641,0.527,0.614,1.013c-0.012,0.212,0.024,0.428,0.04,0.641c-0.065,2.803-0.055,5.608-0.006,8.412
			c-0.064,0.806-0.068,1.61,0.006,2.416c-0.065,2.803-0.055,5.608-0.006,8.412c-0.066,0.806-0.066,1.611,0.006,2.417
			c-0.016,0.212-0.05,0.427-0.042,0.639C55.943,50.051,55.729,50.403,55.15,50.472z"/>
		<path fill-rule="evenodd" clip-rule="evenodd" fill="#FCD1B9" d="M22.416,7.957c0.006,3.427,0.014,6.855,0.018,10.284
			c0.002,2.306,0,4.611,0.001,6.917c0,0.88,0.141,1.028,0.985,1.205c2.37,0.497,4.188,1.753,5.302,3.94
			c0.314,0.613,0.297,0.607-0.402,0.638c-0.65,0.03-1.186-0.094-1.76-0.505c-2.104-1.502-5.04-0.06-5.339,2.578
			c-0.109,0.968-0.035,1.918,0.441,2.806c0.795,1.479,2.343,2.227,3.99,1.91c0.177-0.034,0.352-0.078,0.53-0.11
			c0.443-0.083,0.764,0.102,0.894,0.514c0.133,0.42-0.063,0.728-0.458,0.927c-2.522,1.269-5.756,0.039-6.745-2.577
			c-0.16-0.423-0.401-0.711-0.887-0.617c-0.498,0.097-0.589,0.477-0.565,0.917c0.128,2.469,0.715,4.783,2.268,6.78
			c0.388,0.499,0.387,0.961,0.026,1.289c-0.422,0.383-0.822,0.271-1.243-0.038c-1.987-1.448-2.825-3.516-3.185-5.846
			c-0.108-0.695-0.131-1.396-0.14-2.098c-0.007-0.604-0.268-0.901-0.739-0.896c-0.47,0.003-0.703,0.297-0.705,0.913
			c-0.011,2.6,0.511,5.054,2.022,7.227c0.214,0.309,0.143,0.394-0.207,0.423c-1.08,0.093-1.925-0.294-2.508-1.209
			c-1.048-1.643-1.498-3.475-1.694-5.39c-0.372-3.637,0.425-7.043,1.997-10.299c0.471-0.977,0.659-2.004,0.656-3.085
			c-0.009-5.313-0.007-10.626-0.008-15.939c0-0.221,0.01-0.44,0.015-0.661c1.357-0.003,2.714-0.006,4.069-0.009
			c0.724,0.003,1.447,0.006,2.169,0.008C21.612,7.953,22.015,7.954,22.416,7.957z"/>
		<path fill-rule="evenodd" clip-rule="evenodd" fill="#3ECF8E" d="M35.585,44.502c-2.945,0-5.891,0.001-8.836,0
			c-0.861,0-1.065-0.204-1.067-1.056c-0.001-0.701,0.011-1.403-0.002-2.103c-0.006-0.327,0.082-0.491,0.438-0.576
			c0.561-0.133,1.117-0.316,1.593-0.671c0.42-0.313,0.708-0.724,0.792-1.235c0.059-0.363,0.238-0.429,0.565-0.429
			c5.33,0.008,10.66,0.011,15.989-0.001c0.38,0,0.47,0.124,0.466,0.483c-0.018,1.543-0.005,3.085-0.01,4.628
			c-0.001,0.739-0.226,0.963-0.97,0.964c-2.985,0.002-5.971,0.001-8.957,0.001C35.585,44.507,35.585,44.504,35.585,44.502z
			 M30.998,40.184c0,0.001,0,0.002,0,0.005c-0.419,0-0.839-0.014-1.257,0.004c-0.445,0.017-0.711,0.255-0.72,0.711
			c-0.008,0.459,0.261,0.717,0.699,0.729c0.818,0.023,1.637,0.018,2.455-0.002c0.438-0.011,0.72-0.252,0.722-0.71
			c0.001-0.49-0.291-0.72-0.761-0.733C31.757,40.177,31.377,40.184,30.998,40.184z M33.942,40.975
			c0.064,0.376,0.284,0.664,0.733,0.647c0.44-0.016,0.712-0.299,0.697-0.73c-0.015-0.422-0.274-0.709-0.73-0.694
			C34.193,40.212,33.97,40.482,33.942,40.975z"/>
		<path fill-rule="evenodd" clip-rule="evenodd" fill="#F2F2F2" d="M39.659,23.792c-0.694,0.019-1.387,0.034-2.081,0.051
			c-0.199-0.004-0.398-0.007-0.597-0.011c-0.086-0.597-0.457-0.754-1.021-0.752c-3.825,0.016-7.648,0.002-11.473,0.019
			c-0.448,0.002-0.662-0.082-0.614-0.586c0.047-0.497,0.038-1.002,0.002-1.5c-0.03-0.435,0.137-0.536,0.546-0.533
			c2.943,0.016,5.887,0.002,8.83,0.015c0.558,0.001,0.945-0.146,0.999-0.767c0.551-0.031,1.119,0.167,1.654-0.115
			C36.857,21.272,38.126,22.651,39.659,23.792z"/>
		<path fill-rule="evenodd" clip-rule="evenodd" fill="#3ECF8E" d="M35.592,32.383c2.924-0.001,5.847-0.001,8.771,0
			c0.18,0,0.364-0.016,0.54,0.016c0.467,0.08,0.654,0.452,0.618,1.068c-0.033,0.544-0.431,0.319-0.667,0.319
			c-5.267,0.013-10.532,0.011-15.797,0.008c-0.525,0-1.074-0.075-1.259,0.618c-0.039,0.146-0.187,0.126-0.304,0.127
			c-0.2,0.004-0.4-0.001-0.6-0.003c-1.24-0.013-1.24-0.013-1.21-1.242c0.016-0.68,0.254-0.91,0.96-0.91
			C29.625,32.381,32.61,32.383,35.592,32.383z"/>
		<path fill-rule="evenodd" clip-rule="evenodd" fill="#3C5762" d="M10.985,48.462c0.763,0.002,1.526,0.005,2.29,0.007
			c2.846-0.002,5.692-0.005,8.538-0.007c0.763,0.002,1.526,0.005,2.29,0.007c2.846-0.002,5.692-0.005,8.538-0.007
			c0.763,0.002,1.526,0.005,2.29,0.007c2.846-0.002,5.692-0.005,8.538-0.007c0.763,0.002,1.525,0.005,2.29,0.007
			c1.603,0,3.207,0,4.81,0c0.079,0.016,0.126-0.006,0.111-0.096c0.001-1.604,0.002-3.208,0.002-4.813
			c-0.002-0.763-0.005-1.525-0.007-2.287c0.002-2.847,0.005-5.693,0.007-8.541c-0.002-0.762-0.005-1.525-0.007-2.287
			c0.011-0.698,0.04-1.396,0.024-2.094c-0.011-0.539,0.201-0.876,0.728-1.003c0.594,0.105,0.734,0.496,0.733,1.049
			c-0.011,6.854-0.006,13.708-0.008,20.562c0,0.771-0.218,0.977-1.015,0.978c-6.574,0.004-13.147,0.006-19.721,0.006
			c-7.495,0-14.989-0.002-22.485-0.006c-0.918,0-1.091-0.173-1.091-1.083c-0.001-8.236-0.001-16.474,0-24.709
			c0-0.887,0.167-1.052,1.049-1.056c0.521-0.001,1.042,0.012,1.563-0.003c0.532-0.016,0.831,0.22,0.905,0.746
			c-0.125,0.542-0.49,0.736-1.015,0.708c-0.238-0.012-0.479,0.012-0.716-0.005c-0.262-0.018-0.347,0.083-0.343,0.342
			c0.02,1.095,0.021,2.189,0.028,3.285c0.002,0.762,0.003,1.524,0.006,2.288c-0.002,2.846-0.003,5.693-0.006,8.539
			c0.002,0.764,0.003,1.525,0.006,2.288c-0.001,2.366-0.002,4.732-0.003,7.097c-0.015,0.091,0.033,0.113,0.11,0.097
			C9.943,48.467,10.464,48.465,10.985,48.462z"/>
		<path fill-rule="evenodd" clip-rule="evenodd" fill="#CCCCCC" d="M30.012,58.546c-8.48,0-16.96,0.001-25.44-0.001
			c-1.54,0-2.555-0.67-2.784-1.941c-0.177-0.986-0.048-2-0.054-3.001c-0.002-0.405,0.338-0.262,0.542-0.263
			c2.165-0.009,4.33-0.006,6.495-0.006c5.012,0,10.023,0.007,15.036-0.013c0.457-0.001,0.646,0.122,0.798,0.557
			c0.418,1.192,1.491,1.907,2.782,1.913c1.724,0.008,3.449,0.01,5.173-0.006c1.402-0.014,2.41-0.725,2.873-2.042
			c0.113-0.322,0.258-0.418,0.592-0.417c7.237,0.01,14.475,0.011,21.711-0.001c0.422-0.001,0.556,0.12,0.537,0.54
			c-0.033,0.761,0,1.524-0.02,2.285c-0.03,1.253-0.898,2.217-2.143,2.337c-0.676,0.065-1.361,0.055-2.041,0.056
			C46.049,58.547,38.031,58.546,30.012,58.546z"/>
		<path fill-rule="evenodd" clip-rule="evenodd" fill="#3C5762" d="M30.998,40.184c0.379,0,0.759-0.007,1.138,0.002
			c0.47,0.014,0.762,0.244,0.761,0.733c-0.002,0.458-0.284,0.699-0.722,0.71c-0.818,0.021-1.637,0.025-2.455,0.002
			c-0.438-0.011-0.708-0.269-0.699-0.729c0.008-0.456,0.275-0.694,0.72-0.711c0.418-0.018,0.838-0.004,1.257-0.004
			C30.998,40.186,30.998,40.185,30.998,40.184z"/>
		<path fill-rule="evenodd" clip-rule="evenodd" fill="#3C5762" d="M33.942,40.975c0.028-0.493,0.251-0.763,0.699-0.778
			c0.457-0.015,0.716,0.272,0.73,0.694c0.016,0.431-0.257,0.714-0.697,0.73C34.226,41.639,34.007,41.352,33.942,40.975z"/>
		<path fill-rule="evenodd" clip-rule="evenodd" fill="#F1F1F1" d="M9.422,48.47c-0.078,0.016-0.125-0.006-0.11-0.097
			C9.348,48.405,9.385,48.438,9.422,48.47z"/>
		<path fill-rule="evenodd" clip-rule="evenodd" fill="#F1F1F1" d="M50.567,48.47c0.038-0.032,0.075-0.064,0.111-0.096
			C50.693,48.463,50.646,48.485,50.567,48.47z"/>
	</g>
	<g>
		<g>
			<text transform="matrix(1 0 0 1 43.3086 19.0503)" fill="#3ECF8E" font-family="'BloggerSans-Medium'" font-size="15.826">S</text>
			<g>
				<line fill="#3ECF8E" x1="47.203" y1="6.225" x2="47.203" y2="20.496"/>
				<path fill="#3ECF8E" d="M47.203,21.035c-0.296,0-0.538-0.241-0.538-0.539V6.225c0-0.298,0.241-0.539,0.538-0.539
					c0.298,0,0.54,0.241,0.54,0.539v14.271C47.742,20.794,47.501,21.035,47.203,21.035z"/>
			</g>
		</g>
	</g>
</g>
</svg>
