<?xml version="1.0" encoding="utf-8"?>
<!-- Generator: Adobe Illustrator 16.0.3, SVG Export Plug-In . SVG Version: 6.00 Build 0)  -->
<!DOCTYPE svg PUBLIC "-//W3C//DTD SVG 1.1//EN" "http://www.w3.org/Graphics/SVG/1.1/DTD/svg11.dtd">
<svg version="1.1" id="Capa_1" xmlns="http://www.w3.org/2000/svg" xmlns:xlink="http://www.w3.org/1999/xlink" x="0px" y="0px"
	 width="210.766px" height="116.139px" viewBox="0 0 210.766 116.139" enable-background="new 0 0 210.766 116.139"
	 xml:space="preserve">
<g>
	<g>
		<g>
			<g>
				<g>
					<path fill="#95BA60" d="M97.623,58.545c0.894,0.793,2.518,1.19,4.873,1.19c2.543,0,4.717-0.897,6.522-2.691
						c0.223-0.242,0.679-0.777,1.366-1.605l5.336,1.915c-1.307,1.813-2.252,3.012-2.836,3.599c-2.87,2.883-6.333,4.323-10.389,4.323
						c-4.039,0-7.493-1.44-10.363-4.323c-2.87-2.882-4.305-6.36-4.305-10.433s1.435-7.55,4.305-10.433
						c2.87-2.881,6.325-4.323,10.363-4.323c3.471,0,6.512,1.053,9.125,3.158c0.43,0.363,0.85,0.75,1.263,1.165
						c0.171,0.173,0.661,0.717,1.47,1.631l-2.682,2.718L97.623,58.545z M106.542,41.977c-0.602-0.466-1.95-0.699-4.046-0.699
						c-2.526,0-4.688,0.902-6.484,2.705c-1.795,1.804-2.693,3.983-2.693,6.537c0,2.088,0.232,3.443,0.695,4.064L106.542,41.977z"/>
				</g>
			</g>
			<g>
				<g>
					<path fill-rule="evenodd" clip-rule="evenodd" fill="#BBD597" d="M93.729,62.448c-0.109-0.324-0.428-0.447-0.656-0.643
						c-1.088-0.935-2.033-1.99-2.84-3.174c-0.029-0.043-0.081-0.071-0.122-0.106c-1.423,1.417-2.847,2.833-4.27,4.249
						c-0.369,0.366-0.378,0.373-0.642-0.083c-1.326-2.291-2.197-4.745-2.637-7.355c-0.248-1.472-0.357-2.951-0.314-4.441
						c0.083-2.827,0.679-5.543,1.789-8.142c1.211-2.836,2.932-5.331,5.173-7.446c3.228-3.046,7.026-4.995,11.397-5.805
						c1.141-0.211,2.289-0.334,3.451-0.344c0.434-0.004,0.87-0.065,1.306-0.049c0.17,0.005,0.277-0.086,0.386-0.195
						c3.264-3.268,6.531-6.53,9.788-9.803c0.822-0.825,0.781-2.213-0.052-3.032c-0.816-0.802-2.157-0.795-2.991,0.037
						c-2.824,2.818-5.644,5.64-8.457,8.468c-0.229,0.231-0.46,0.326-0.786,0.336c-2.151,0.067-4.249,0.452-6.308,1.071
						c-3.389,1.021-6.45,2.663-9.188,4.895c-2.719,2.216-4.896,4.888-6.573,7.971c-1.489,2.737-2.462,5.648-2.92,8.724
						c-0.339,2.274-0.366,4.56-0.13,6.854c0.219,2.13,0.707,4.19,1.42,6.201c0.735,2.068,1.747,3.994,2.945,5.833
						c0.86,1.32,1.912,2.474,2.939,3.653c0.208,0.239,0.33,0.207,0.547-0.001c2.471-2.378,4.862-4.836,7.306-7.241
						C93.436,62.733,93.583,62.59,93.729,62.448z"/>
					<path fill-rule="evenodd" clip-rule="evenodd" fill="#E5E5E5" d="M115.245,10.403c-1.297,0-2.595-0.001-3.892,0.001
						c-0.87,0.001-1.489,0.607-1.491,1.452c-0.001,0.835,0.582,1.422,1.458,1.426c2.021,0.009,4.043,0.014,6.064-0.005
						c0.368-0.003,0.454,0.102,0.452,0.459c-0.017,2.008-0.013,4.018-0.006,6.026c0.002,0.737,0.371,1.251,1.024,1.467
						c0.549,0.181,1.172-0.023,1.571-0.513c0.266-0.327,0.331-0.718,0.333-1.115c0.007-2.501,0.004-5.001,0.002-7.502
						c0-1.086-0.741-1.757-1.746-1.71C117.76,10.448,116.501,10.403,115.245,10.403z"/>
				</g>
			</g>
		</g>
	</g>
	<g>
		<path fill="#E5E5E5" d="M26.899,96.157c0.538,0.475,1.514,0.713,2.929,0.713c1.528,0,2.835-0.537,3.919-1.612
			c0.135-0.145,0.408-0.465,0.822-0.961l3.207,1.146c-0.785,1.085-1.354,1.803-1.704,2.154c-1.725,1.726-3.807,2.587-6.244,2.587
			c-2.428,0-4.504-0.861-6.229-2.587c-1.725-1.725-2.587-3.806-2.587-6.244c0-2.437,0.862-4.519,2.587-6.244
			c1.725-1.725,3.801-2.588,6.229-2.588c2.086,0,3.914,0.63,5.485,1.891c0.258,0.217,0.511,0.448,0.759,0.697
			c0.103,0.103,0.397,0.428,0.883,0.976l-1.611,1.627L26.899,96.157z M32.261,86.241c-0.362-0.278-1.173-0.418-2.433-0.418
			c-1.519,0-2.818,0.54-3.897,1.619c-1.08,1.08-1.62,2.383-1.62,3.912c0,1.25,0.14,2.061,0.419,2.433L32.261,86.241z"/>
		<path fill="#E5E5E5" d="M53.208,83.823l-4.213,7.283l4.989,8.661H50.28l-3.113-5.361l-3.1,5.361h-3.734l5.006-8.661l-4.2-7.283
			h3.703l2.325,3.982l2.308-3.982H53.208z"/>
		<path fill="#E5E5E5" d="M60.677,97.784v7.345H57.47V83.823h3.207v1.441c1.549-1.818,3.352-2.728,5.408-2.728
			c2.438,0,4.517,0.859,6.237,2.58c1.719,1.72,2.58,3.8,2.58,6.237c0,2.438-0.86,4.519-2.58,6.244
			c-1.72,1.726-3.799,2.587-6.237,2.587C64.029,100.185,62.227,99.385,60.677,97.784z M60.677,90.114v2.495
			c0.196,0.981,0.698,1.87,1.503,2.665c1.074,1.074,2.375,1.612,3.904,1.612s2.833-0.54,3.912-1.619
			c1.08-1.08,1.62-2.384,1.62-3.913c0-1.519-0.54-2.82-1.62-3.905c-1.079-1.084-2.383-1.626-3.912-1.626s-2.831,0.542-3.904,1.626
			C61.375,88.244,60.874,89.133,60.677,90.114z"/>
		<path fill="#E5E5E5" d="M86.662,82.522c2.438,0,4.517,0.863,6.236,2.588s2.58,3.807,2.58,6.244c0,2.438-0.86,4.519-2.58,6.244
			c-1.72,1.726-3.798,2.587-6.236,2.587c-2.428,0-4.504-0.861-6.229-2.587c-1.725-1.725-2.588-3.806-2.588-6.244
			c0-2.437,0.863-4.519,2.588-6.244C82.158,83.385,84.234,82.522,86.662,82.522z M82.75,87.449c-1.08,1.085-1.62,2.386-1.62,3.905
			c0,1.529,0.54,2.83,1.62,3.905c1.079,1.075,2.383,1.612,3.912,1.612s2.833-0.537,3.912-1.612s1.62-2.376,1.62-3.905
			c0-1.519-0.541-2.82-1.62-3.905c-1.079-1.084-2.383-1.626-3.912-1.626S83.828,86.365,82.75,87.449z"/>
		<path fill="#E5E5E5" d="M102.404,85.978c1.198-1.622,2.67-2.475,4.416-2.558v3.332c-1.167,0.062-2.097,0.44-2.79,1.131
			c-1.043,1.034-1.585,2.262-1.626,3.688v8.196h-3.208V83.823h3.208V85.978z"/>
		<path fill="#E5E5E5" d="M112.49,83.823v-5.98h3.208v5.98h2.866v3.207h-2.866v12.736h-3.208V87.03h-2.866v-3.207H112.49z"/>
		<path fill="#E5E5E5" d="M127.256,96.157c0.537,0.475,1.513,0.713,2.929,0.713c1.529,0,2.835-0.537,3.92-1.612
			c0.134-0.145,0.408-0.465,0.821-0.961l3.208,1.146c-0.785,1.085-1.354,1.803-1.704,2.154c-1.726,1.726-3.807,2.587-6.245,2.587
			c-2.427,0-4.504-0.861-6.229-2.587c-1.725-1.725-2.587-3.806-2.587-6.244c0-2.437,0.862-4.519,2.587-6.244
			c1.725-1.725,3.801-2.588,6.229-2.588c2.086,0,3.915,0.63,5.485,1.891c0.258,0.217,0.511,0.448,0.759,0.697
			c0.103,0.103,0.397,0.428,0.883,0.976l-1.611,1.627L127.256,96.157z M132.618,86.241c-0.361-0.278-1.172-0.418-2.433-0.418
			c-1.519,0-2.818,0.54-3.896,1.619c-1.08,1.08-1.619,2.383-1.619,3.912c0,1.25,0.139,2.061,0.418,2.433L132.618,86.241z"/>
		<path fill="#E5E5E5" d="M145.076,74.961v24.806h-3.224V74.961H145.076z"/>
		<path fill="#E5E5E5" d="M152.946,74.961v24.806h-3.223V74.961H152.946z"/>
		<path fill="#E5E5E5" d="M164.351,99.984c-2.015,0-3.636-0.615-4.866-1.844c-1.229-1.229-1.859-2.768-1.89-4.617v-9.7h3.223v9.575
			c0,0.92,0.335,1.71,1.007,2.371c0.671,0.662,1.508,0.992,2.51,0.992c0.919,0,1.717-0.328,2.394-0.984
			c0.676-0.656,1.015-1.449,1.015-2.379v-9.575h3.207v9.7c-0.031,1.849-0.656,3.388-1.875,4.617
			C167.847,99.369,166.271,99.984,164.351,99.984z"/>
		<path fill="#E5E5E5" d="M178.822,96.343c0.382,0.372,0.836,0.558,1.363,0.558s0.979-0.186,1.356-0.558
			c0.376-0.372,0.565-0.832,0.565-1.379c0-0.526-0.186-0.976-0.558-1.347c-0.258-0.258-0.811-0.657-1.658-1.194
			c-1.157-0.63-1.978-1.188-2.463-1.673c-0.848-0.847-1.271-1.864-1.271-3.052c0-1.198,0.423-2.223,1.271-3.076
			c0.846-0.853,1.869-1.278,3.067-1.278s2.195,0.402,2.991,1.209c0.568,0.568,0.93,1.204,1.084,1.906l-3.114,0.898
			c-0.073-0.258-0.145-0.428-0.217-0.511c-0.186-0.187-0.434-0.279-0.744-0.279c-0.31,0-0.576,0.111-0.798,0.333
			c-0.223,0.223-0.333,0.488-0.333,0.798s0.108,0.573,0.325,0.79c0.196,0.187,0.64,0.501,1.333,0.945
			c1.28,0.703,2.21,1.343,2.789,1.921c1.001,1.013,1.502,2.216,1.502,3.61c0,1.426-0.498,2.642-1.495,3.65
			c-0.998,1.006-2.208,1.51-3.634,1.51c-1.415,0-2.624-0.506-3.626-1.519c-0.692-0.692-1.146-1.555-1.363-2.587l3.191-0.682
			C178.481,95.811,178.625,96.146,178.822,96.343z"/>
	</g>
</g>
</svg>
