<?xml version="1.0" encoding="utf-8"?>
<!-- Generator: Adobe Illustrator 22.0.0, SVG Export Plug-In . SVG Version: 6.00 Build 0)  -->
<svg version="1.1" id="Capa_1" xmlns="http://www.w3.org/2000/svg" xmlns:xlink="http://www.w3.org/1999/xlink" x="0px" y="0px"
	 viewBox="0 0 206.4 66.7" style="enable-background:new 0 0 206.4 66.7;" xml:space="preserve">
<style type="text/css">
	.st0{fill:#1CB978;}
	.st1{fill:#6ED69A;}
	.st2{fill:#3D5662;}
</style>
<g>
	<g>
		<g>
			<path class="st0" d="M22.3,53.3c1,0.9,2.8,1.3,5.3,1.3c2.8,0,5.2-1,7.1-2.9c0.2-0.3,0.7-0.8,1.5-1.8l5.8,2.1
				c-1.4,2-2.5,3.3-3.1,3.9c-3.1,3.2-6.9,4.7-11.4,4.7c-4.4,0-8.2-1.6-11.3-4.7c-3.1-3.2-4.7-7-4.7-11.4c0-4.5,1.6-8.3,4.7-11.4
				c3.1-3.1,6.9-4.7,11.3-4.7c3.8,0,7.1,1.2,10,3.5c0.5,0.4,0.9,0.8,1.4,1.3c0.2,0.2,0.7,0.8,1.6,1.8l-2.9,3L22.3,53.3z M32.1,35.1
				c-0.7-0.5-2.1-0.8-4.4-0.8c-2.8,0-5.1,1-7.1,3c-2,2-2.9,4.4-2.9,7.1c0,2.3,0.3,3.8,0.8,4.4L32.1,35.1z"/>
		</g>
	</g>
	<path class="st1" d="M18,57.5c-0.1-0.4-0.5-0.5-0.7-0.7c-1.2-1-2.2-2.2-3.1-3.5c0,0-0.1-0.1-0.1-0.1c-1.6,1.5-3.1,3.1-4.7,4.6
		C9,58.3,9,58.3,8.7,57.8c-1.4-2.5-2.4-5.2-2.9-8c-0.3-1.6-0.4-3.2-0.3-4.9c0.1-3.1,0.7-6.1,2-8.9c1.3-3.1,3.2-5.8,5.7-8.1
		c3.5-3.3,7.7-5.5,12.5-6.3c1.2-0.2,2.5-0.4,3.8-0.4c0.5,0,1-0.1,1.4-0.1c0.2,0,0.3-0.1,0.4-0.2c3.6-3.6,7.1-7.1,10.7-10.7
		c0.9-0.9,0.9-2.4-0.1-3.3c-0.9-0.9-2.4-0.9-3.3,0c-3.1,3.1-6.2,6.2-9.2,9.3c-0.3,0.3-0.5,0.4-0.9,0.4c-2.4,0.1-4.6,0.5-6.9,1.2
		c-3.7,1.1-7.1,2.9-10,5.4c-3,2.4-5.4,5.3-7.2,8.7c-1.6,3-2.7,6.2-3.2,9.5c-0.4,2.5-0.4,5-0.1,7.5c0.2,2.3,0.8,4.6,1.6,6.8
		c0.8,2.3,1.9,4.4,3.2,6.4c0.9,1.4,2.1,2.7,3.2,4c0.2,0.3,0.4,0.2,0.6,0c2.7-2.6,5.3-5.3,8-7.9C17.7,57.8,17.9,57.7,18,57.5z"/>
	<path class="st2" d="M41.6,0.6c-1.4,0-2.8,0-4.3,0c-1,0-1.6,0.7-1.6,1.6c0,0.9,0.6,1.6,1.6,1.6c2.2,0,4.4,0,6.6,0
		c0.4,0,0.5,0.1,0.5,0.5c0,2.2,0,4.4,0,6.6c0,0.8,0.4,1.4,1.1,1.6c0.6,0.2,1.3,0,1.7-0.6c0.3-0.4,0.4-0.8,0.4-1.2c0-2.7,0-5.5,0-8.2
		c0-1.2-0.8-1.9-1.9-1.9C44.3,0.7,42.9,0.6,41.6,0.6z"/>
	<g>
		<g>
			<g>
				<path class="st2" d="M61.7,39.8l-4.6,8l5.5,9.5h-4l-3.4-5.9l-3.4,5.9h-4.1l5.5-9.5l-4.6-8h4l2.5,4.4l2.5-4.4
					C57.6,39.8,61.7,39.8,61.7,39.8z"/>
				<path class="st2" d="M69.8,55.1v8h-3.5V39.8h3.5v1.6c1.7-2,3.7-3,5.9-3c2.7,0,4.9,0.9,6.8,2.8c1.9,1.9,2.8,4.2,2.8,6.8
					c0,2.7-0.9,4.9-2.8,6.8c-1.9,1.9-4.2,2.8-6.8,2.8C73.5,57.7,71.5,56.9,69.8,55.1z M69.8,46.7v2.7c0.2,1.1,0.8,2,1.6,2.9
					c1.2,1.2,2.6,1.8,4.3,1.8s3.1-0.6,4.3-1.8c1.2-1.2,1.8-2.6,1.8-4.3c0-1.7-0.6-3.1-1.8-4.3c-1.2-1.2-2.6-1.8-4.3-1.8
					s-3.1,0.6-4.3,1.8C70.6,44.7,70.1,45.7,69.8,46.7z"/>
				<path class="st2" d="M98.3,38.4c2.7,0,4.9,0.9,6.8,2.8c1.9,1.9,2.8,4.2,2.8,6.8c0,2.7-0.9,4.9-2.8,6.8c-1.9,1.9-4.2,2.8-6.8,2.8
					c-2.7,0-4.9-0.9-6.8-2.8c-1.9-1.9-2.8-4.2-2.8-6.8c0-2.7,0.9-4.9,2.8-6.8C93.3,39.4,95.6,38.4,98.3,38.4z M94,43.8
					c-1.2,1.2-1.8,2.6-1.8,4.3c0,1.7,0.6,3.1,1.8,4.3c1.2,1.2,2.6,1.8,4.3,1.8c1.7,0,3.1-0.6,4.3-1.8c1.2-1.2,1.8-2.6,1.8-4.3
					c0-1.7-0.6-3.1-1.8-4.3c-1.2-1.2-2.6-1.8-4.3-1.8C96.6,42,95.2,42.6,94,43.8z"/>
				<path class="st2" d="M115.5,42.2c1.3-1.8,2.9-2.7,4.8-2.8v3.6c-1.3,0.1-2.3,0.5-3.1,1.2c-1.1,1.1-1.7,2.5-1.8,4v9H112V39.8h3.5
					V42.2z"/>
				<path class="st2" d="M126.5,39.8v-6.5h3.5v6.5h3.1v3.5H130v13.9h-3.5V43.4h-3.1v-3.5H126.5z"/>
				<path class="st2" d="M142.6,53.3c0.6,0.5,1.7,0.8,3.2,0.8c1.7,0,3.1-0.6,4.3-1.8c0.1-0.2,0.4-0.5,0.9-1.1l3.5,1.3
					c-0.9,1.2-1.5,2-1.9,2.4c-1.9,1.9-4.2,2.8-6.8,2.8c-2.7,0-4.9-0.9-6.8-2.8c-1.9-1.9-2.8-4.2-2.8-6.8c0-2.7,0.9-4.9,2.8-6.8
					s4.2-2.8,6.8-2.8c2.3,0,4.3,0.7,6,2.1c0.3,0.2,0.6,0.5,0.8,0.8c0.1,0.1,0.4,0.5,1,1.1l-1.8,1.8L142.6,53.3z M148.5,42.5
					c-0.4-0.3-1.3-0.5-2.7-0.5c-1.7,0-3.1,0.6-4.3,1.8c-1.2,1.2-1.8,2.6-1.8,4.3c0,1.4,0.1,2.3,0.5,2.7L148.5,42.5z"/>
				<path class="st2" d="M162.1,30.2v27.1h-3.5V30.2H162.1z"/>
				<path class="st2" d="M170.7,30.2v27.1h-3.5V30.2H170.7z"/>
				<path class="st2" d="M183.2,57.5c-2.2,0-4-0.7-5.3-2c-1.3-1.3-2-3-2.1-5V39.8h3.5v10.5c0,1,0.4,1.9,1.1,2.6
					c0.7,0.7,1.6,1.1,2.7,1.1c1,0,1.9-0.4,2.6-1.1c0.7-0.7,1.1-1.6,1.1-2.6V39.8h3.5v10.6c0,2-0.7,3.7-2.1,5
					C187,56.8,185.3,57.5,183.2,57.5z"/>
				<path class="st2" d="M199,53.5c0.4,0.4,0.9,0.6,1.5,0.6s1.1-0.2,1.5-0.6s0.6-0.9,0.6-1.5c0-0.6-0.2-1.1-0.6-1.5
					c-0.3-0.3-0.9-0.7-1.8-1.3c-1.3-0.7-2.2-1.3-2.7-1.8c-0.9-0.9-1.4-2-1.4-3.3c0-1.3,0.5-2.4,1.4-3.4c0.9-0.9,2-1.4,3.4-1.4
					c1.3,0,2.4,0.4,3.3,1.3c0.6,0.6,1,1.3,1.2,2.1l-3.4,1c-0.1-0.3-0.2-0.5-0.2-0.6c-0.2-0.2-0.5-0.3-0.8-0.3
					c-0.3,0-0.6,0.1-0.9,0.4c-0.2,0.2-0.4,0.5-0.4,0.9c0,0.3,0.1,0.6,0.4,0.9c0.2,0.2,0.7,0.5,1.5,1c1.4,0.8,2.4,1.5,3,2.1
					c1.1,1.1,1.6,2.4,1.6,3.9c0,1.6-0.5,2.9-1.6,4c-1.1,1.1-2.4,1.7-4,1.7c-1.5,0-2.9-0.6-4-1.7c-0.8-0.8-1.3-1.7-1.5-2.8l3.5-0.7
					C198.6,53,198.8,53.3,199,53.5z"/>
			</g>
		</g>
	</g>
</g>
</svg>
